<svg width="192" height="196" viewBox="0 0 192 196" fill="none" xmlns="http://www.w3.org/2000/svg">
<g filter="url(#filter0_d_28_413)">
<circle cx="161" cy="31" r="150" fill="#66CC33"/>
</g>
<path d="M95.0115 103.328H93.1451C93.111 103.087 93.0414 102.872 92.9363 102.685C92.8311 102.494 92.6962 102.332 92.5314 102.199C92.3667 102.065 92.1763 101.963 91.9604 101.892C91.7473 101.821 91.5158 101.786 91.2658 101.786C90.8141 101.786 90.4206 101.898 90.0854 102.122C89.7502 102.344 89.4902 102.668 89.3056 103.094C89.1209 103.517 89.0286 104.031 89.0286 104.636C89.0286 105.259 89.1209 105.781 89.3056 106.205C89.4931 106.628 89.7544 106.947 90.0897 107.163C90.4249 107.379 90.8127 107.487 91.253 107.487C91.5002 107.487 91.7289 107.455 91.9391 107.389C92.1522 107.324 92.3411 107.229 92.5059 107.104C92.6706 106.976 92.807 106.821 92.915 106.639C93.0257 106.457 93.1025 106.25 93.1451 106.017L95.0115 106.026C94.9632 106.426 94.8425 106.812 94.6493 107.185C94.459 107.554 94.2019 107.885 93.878 108.178C93.557 108.467 93.1735 108.697 92.7275 108.868C92.2843 109.036 91.7828 109.119 91.2232 109.119C90.4448 109.119 89.7488 108.943 89.1351 108.591C88.5243 108.239 88.0414 107.729 87.6863 107.061C87.334 106.393 87.1578 105.585 87.1578 104.636C87.1578 103.685 87.3368 102.875 87.6948 102.207C88.0527 101.54 88.5385 101.031 89.1522 100.682C89.7658 100.33 90.4561 100.153 91.2232 100.153C91.7289 100.153 92.1976 100.224 92.6294 100.366C93.0641 100.509 93.449 100.716 93.7843 100.989C94.1195 101.259 94.3922 101.589 94.6025 101.982C94.8155 102.374 94.9519 102.822 95.0115 103.328ZM104.355 104.636C104.355 105.588 104.174 106.398 103.813 107.065C103.455 107.733 102.967 108.243 102.347 108.595C101.731 108.945 101.038 109.119 100.268 109.119C99.4924 109.119 98.7963 108.943 98.1799 108.591C97.5634 108.239 97.0762 107.729 96.7182 107.061C96.3603 106.393 96.1813 105.585 96.1813 104.636C96.1813 103.685 96.3603 102.875 96.7182 102.207C97.0762 101.54 97.5634 101.031 98.1799 100.682C98.7963 100.33 99.4924 100.153 100.268 100.153C101.038 100.153 101.731 100.33 102.347 100.682C102.967 101.031 103.455 101.54 103.813 102.207C104.174 102.875 104.355 103.685 104.355 104.636ZM102.484 104.636C102.484 104.02 102.392 103.5 102.207 103.077C102.025 102.653 101.768 102.332 101.436 102.114C101.103 101.895 100.714 101.786 100.268 101.786C99.8219 101.786 99.4327 101.895 99.1003 102.114C98.7679 102.332 98.5094 102.653 98.3248 103.077C98.1429 103.5 98.052 104.02 98.052 104.636C98.052 105.253 98.1429 105.773 98.3248 106.196C98.5094 106.619 98.7679 106.94 99.1003 107.159C99.4327 107.378 99.8219 107.487 100.268 107.487C100.714 107.487 101.103 107.378 101.436 107.159C101.768 106.94 102.025 106.619 102.207 106.196C102.392 105.773 102.484 105.253 102.484 104.636ZM113.021 100.273V109H111.427L107.631 103.507H107.567V109H105.721V100.273H107.341L111.108 105.761H111.184V100.273H113.021ZM114.213 101.794V100.273H121.381V101.794H118.709V109H116.885V101.794H114.213ZM122.999 109H121.022L124.035 100.273H126.412L129.421 109H127.444L125.258 102.267H125.189L122.999 109ZM122.876 105.57H127.546V107.01H122.876V105.57ZM137.762 103.328H135.895C135.861 103.087 135.791 102.872 135.686 102.685C135.581 102.494 135.446 102.332 135.281 102.199C135.117 102.065 134.926 101.963 134.71 101.892C134.497 101.821 134.266 101.786 134.016 101.786C133.564 101.786 133.171 101.898 132.835 102.122C132.5 102.344 132.24 102.668 132.056 103.094C131.871 103.517 131.779 104.031 131.779 104.636C131.779 105.259 131.871 105.781 132.056 106.205C132.243 106.628 132.504 106.947 132.84 107.163C133.175 107.379 133.563 107.487 134.003 107.487C134.25 107.487 134.479 107.455 134.689 107.389C134.902 107.324 135.091 107.229 135.256 107.104C135.421 106.976 135.557 106.821 135.665 106.639C135.776 106.457 135.852 106.25 135.895 106.017L137.762 106.026C137.713 106.426 137.593 106.812 137.399 107.185C137.209 107.554 136.952 107.885 136.628 108.178C136.307 108.467 135.923 108.697 135.477 108.868C135.034 109.036 134.533 109.119 133.973 109.119C133.195 109.119 132.499 108.943 131.885 108.591C131.274 108.239 130.791 107.729 130.436 107.061C130.084 106.393 129.908 105.585 129.908 104.636C129.908 103.685 130.087 102.875 130.445 102.207C130.803 101.54 131.289 101.031 131.902 100.682C132.516 100.33 133.206 100.153 133.973 100.153C134.479 100.153 134.948 100.224 135.379 100.366C135.814 100.509 136.199 100.716 136.534 100.989C136.869 101.259 137.142 101.589 137.352 101.982C137.566 102.374 137.702 102.822 137.762 103.328ZM138.752 101.794V100.273H145.92V101.794H143.248V109H141.424V101.794H138.752ZM149.878 100.273H152.153L154.557 106.136H154.659L157.062 100.273H159.338V109H157.548V103.32H157.476L155.217 108.957H153.998L151.74 103.298H151.667V109H149.878V100.273ZM160.858 109V100.273H166.739V101.794H162.703V103.874H166.436V105.395H162.703V107.479H166.756V109H160.858Z" fill="white"/>
<rect x="92" y="31" width="69" height="51.75" rx="7" stroke="white" stroke-width="7"/>
<path d="M92 43.9375L123.37 59.6223C125.34 60.6076 127.66 60.6076 129.63 59.6223L161 43.9375" stroke="white" stroke-width="7"/>
<defs>
<filter id="filter0_d_28_413" x="0" y="-126" width="322" height="322" filterUnits="userSpaceOnUse" color-interpolation-filters="sRGB">
<feFlood flood-opacity="0" result="BackgroundImageFix"/>
<feColorMatrix in="SourceAlpha" type="matrix" values="0 0 0 0 0 0 0 0 0 0 0 0 0 0 0 0 0 0 127 0" result="hardAlpha"/>
<feOffset dy="4"/>
<feGaussianBlur stdDeviation="5.5"/>
<feComposite in2="hardAlpha" operator="out"/>
<feColorMatrix type="matrix" values="0 0 0 0 0 0 0 0 0 0 0 0 0 0 0 0 0 0 0.25 0"/>
<feBlend mode="normal" in2="BackgroundImageFix" result="effect1_dropShadow_28_413"/>
<feBlend mode="normal" in="SourceGraphic" in2="effect1_dropShadow_28_413" result="shape"/>
</filter>
</defs>
</svg>
