<svg width="110" height="110" viewBox="0 0 110 110" fill="none" xmlns="http://www.w3.org/2000/svg">
<path d="M55 96.25C49.583 96.25 44.219 95.183 39.2143 93.11C34.2096 91.037 29.6623 87.9986 25.8318 84.1682C22.0014 80.3377 18.963 75.7904 16.89 70.7857C14.817 65.781 13.75 60.417 13.75 55C13.75 49.583 14.817 44.219 16.89 39.2143C18.963 34.2096 22.0014 29.6623 25.8318 25.8318C29.6623 22.0014 34.2096 18.963 39.2143 16.89C44.219 14.817 49.583 13.75 55 13.75C60.417 13.75 65.781 14.817 70.7857 16.89C75.7904 18.963 80.3377 22.0014 84.1682 25.8319C87.9986 29.6623 91.037 34.2096 93.11 39.2143C95.183 44.219 96.25 49.583 96.25 55C96.25 60.417 95.183 65.781 93.11 70.7857C91.037 75.7904 87.9986 80.3377 84.1681 84.1682C80.3377 87.9986 75.7904 91.037 70.7857 93.11C65.781 95.183 60.417 96.25 55 96.25L55 96.25Z" stroke="#BDBDBD" stroke-width="5" stroke-linecap="round"/>
<path d="M41.25 41.25L68.75 68.75" stroke="#BDBDBD" stroke-width="5" stroke-linecap="round"/>
<path d="M68.75 41.25L41.25 68.75" stroke="#BDBDBD" stroke-width="5" stroke-linecap="round"/>
</svg>
