<svg width="58" height="46" viewBox="0 0 58 46" fill="none" xmlns="http://www.w3.org/2000/svg">
<path d="M6 11.1074C6 8.43285 6.00425 6.62811 6.1855 5.27999C6.35901 3.98942 6.66107 3.42065 7.04086 3.04086C7.42065 2.66107 7.98942 2.35901 9.27999 2.1855C10.6281 2.00425 12.4328 2 15.1074 2H42.876C45.5506 2 47.3554 2.00425 48.7035 2.1855C49.9941 2.35901 50.5628 2.66107 50.9426 3.04086L52.3568 1.62665L50.9426 3.04086C51.3224 3.42065 51.6245 3.98942 51.798 5.27999C51.9792 6.62811 51.9835 8.43285 51.9835 11.1074V34.0992H6V11.1074Z" stroke="#66CC33" stroke-width="4"/>
<path d="M5.85124 34.4463C3.72426 34.4463 2 36.1705 2 38.2975C2 41.4469 4.55309 44 7.70248 44H50.281C53.4304 44 55.9835 41.4469 55.9835 38.2975C55.9835 36.1706 54.2592 34.4463 52.1322 34.4463H5.85124Z" stroke="#66CC33" stroke-width="4"/>
</svg>
