<svg width="46" height="49" viewBox="0 0 46 49" fill="none" xmlns="http://www.w3.org/2000/svg">
<path fill-rule="evenodd" clip-rule="evenodd" d="M23.4041 37.1411C25.9205 35.9053 39.3332 28.7367 39.3332 16.3333C39.3332 7.31268 32.0205 0 22.9998 0C13.9792 0 6.6665 7.31268 6.6665 16.3333C6.6665 28.7367 20.0792 35.9053 22.5956 37.1411C22.8513 37.2666 23.1484 37.2666 23.4041 37.1411ZM23 23.3334C26.866 23.3334 30 20.1993 30 16.3334C30 12.4674 26.866 9.33335 23 9.33335C19.134 9.33335 16 12.4674 16 16.3334C16 20.1993 19.134 23.3334 23 23.3334Z" fill="#666666"/>
<path d="M41.1865 36.1666C43.0297 37.2308 44 38.4379 44 39.6666C44 40.8954 43.0297 42.1025 41.1865 43.1666C39.3434 44.2308 36.6924 45.1144 33.5 45.7288C30.3076 46.3432 26.6863 46.6666 23 46.6666C19.3137 46.6666 15.6924 46.3432 12.5 45.7288C9.3076 45.1144 6.6566 44.2308 4.81347 43.1666C2.97033 42.1025 2 40.8954 2 39.6666C2 38.4379 2.97033 37.2308 4.81347 36.1666" stroke="#666666" stroke-width="4" stroke-linecap="round"/>
</svg>
