<svg width="744" height="252" viewBox="0 0 744 252" fill="none" xmlns="http://www.w3.org/2000/svg">
<g clip-path="url(#clip0_23_95)">
<path d="M355.632 119.085H326.315V148.425H355.632V119.085Z" fill="#7CC242"/>
<path d="M145.428 187.376V64.6235H181.727C196.487 64.6235 211.392 68.2765 222.343 75.4086C238.913 86.3532 249.024 105.937 249.024 126.667C249.024 141.931 243.215 156.688 231.294 168.966C219.359 181.404 201.948 187.376 181.235 187.376H145.428ZM180.235 176.258C200.63 176.258 214.217 170.952 223.168 161.486C232.453 151.528 236.755 138.757 236.755 125.985C236.755 110.054 230.121 96.1235 217.2 86.1792C208.582 79.54 195.488 75.7275 179.743 75.7275H157.697V176.258H180.235Z" fill="#59585B"/>
<path d="M285.641 187.376V75.742H257.468V64.6235H325.924V75.742H297.91V187.376H285.641Z" fill="#59585B"/>
<path d="M384.312 187.376V75.742H356.139V64.6235H424.595V75.742H396.581V187.376H384.312Z" fill="#59585B"/>
<path d="M503.32 187.376L461.719 131.798H473.655C495.368 131.798 508.303 120.68 508.303 103.922C508.303 92.3111 501.176 75.7275 472.988 75.7275H449.624V187.362H437.356V64.6235H474.321C506.318 64.6235 520.571 83.5409 520.571 104.27C520.571 125 505.652 139.931 484.098 141.598L518.746 187.376H503.334H503.32Z" fill="#59585B"/>
<path d="M633.77 187.376L616.026 146.077H559.014L541.111 187.376H528.35L580.727 64.6235H594.487L647.198 187.376H633.77ZM587.68 78.5543L563.649 134.959H611.217L587.68 78.5543Z" fill="#59585B"/>
<path d="M728.574 187.376L687.625 134.132L671.706 153.702V187.376H659.438V64.6235H671.706V135.133H672.039L728.226 64.6235H743.971L695.403 124.507L743.971 187.376H728.559H728.574Z" fill="#59585B"/>
<path d="M258.511 241.766C255.687 246.825 250.646 249.884 245.156 249.884C236.9 249.884 230.005 243.346 230.005 234.909C230.005 226.472 236.784 219.906 245.113 219.906C250.472 219.906 256.078 222.993 258.381 227.821H255.136C252.905 224.487 248.995 222.53 245.069 222.53C238.609 222.53 232.887 228.256 232.887 234.953C232.887 241.65 238.609 247.26 245.098 247.26C249.052 247.26 252.616 245.259 255.238 241.78H258.482L258.511 241.766Z" fill="#59585B"/>
<path d="M287.553 249.884C279.644 249.884 272.243 243.462 272.243 235.04C272.243 226.617 279.051 219.877 287.553 219.877C296.056 219.877 302.893 226.617 302.893 234.88C302.893 243.143 295.969 249.884 287.553 249.884ZM287.524 222.501C280.673 222.501 275.154 228.299 275.154 235.04C275.154 241.78 280.832 247.26 287.568 247.26C294.303 247.26 300.01 241.577 300.01 234.924C300.01 228.27 294.491 222.501 287.524 222.501Z" fill="#59585B"/>
<path d="M341.075 249.376L323.896 223.878H323.823V249.376H320.926V220.384H324.837L341.002 244.433H341.075V220.384H343.972V249.376H341.075Z" fill="#59585B"/>
<path d="M375.244 227.748C375.244 224.776 372.811 222.501 370.117 222.501C367.147 222.501 364.873 224.733 364.873 227.56C364.873 230.024 366.365 231.561 370.464 232.619C376.722 234.228 378.837 237.475 378.837 241.389C378.837 246.129 374.955 249.898 370.102 249.898C364.975 249.898 361.252 246.448 361.18 241.273H364.077C364.279 244.998 366.626 247.26 370.102 247.26C373.39 247.26 375.94 244.68 375.94 241.505C375.94 238.33 373.868 236.605 370.073 235.518C365.931 234.344 361.976 232.967 361.976 227.676C361.976 223.095 365.656 219.877 370.117 219.877C374.578 219.877 378.141 223.283 378.141 227.748H375.244Z" fill="#59585B"/>
<path d="M414.47 220.384H417.367V238.765C417.367 246.086 413.094 249.898 407.502 249.898C401.911 249.898 397.638 246.216 397.638 238.693V220.399H400.535V238.852C400.535 244.694 403.664 247.274 407.502 247.274C410.834 247.274 414.47 245.201 414.47 238.896V220.399V220.384Z" fill="#59585B"/>
<path d="M438.427 249.376V220.384H441.324V246.752H453.303V249.376H438.427Z" fill="#59585B"/>
<path d="M470.294 249.376V223.008H463.646V220.384H479.811V223.008H473.191V249.376H470.294Z" fill="#59585B"/>
<path d="M497.917 249.376V220.384H500.814V249.376H497.917Z" fill="#59585B"/>
<path d="M541.762 249.376L524.583 223.878H524.496V249.376H521.599V220.384H525.51L541.675 244.433H541.748V220.384H544.645V249.376H541.748H541.762Z" fill="#59585B"/>
<path d="M572.296 238.678V236.054H591.952C591.33 243.853 584.71 249.884 576.642 249.884C568.574 249.884 561.1 243.534 561.1 234.88C561.1 226.226 568.11 219.877 576.598 219.877C583.102 219.877 588.621 224.037 590.301 228.11H586.941C584.942 224.704 580.799 222.501 576.642 222.501C569.834 222.501 563.997 227.98 563.997 234.924C563.997 241.867 569.863 247.26 576.758 247.26C582.001 247.26 587.129 243.694 588.462 238.678H572.296Z" fill="#59585B"/>
<path d="M600.165 252L603.613 244.433H606.51L603.062 252H600.165Z" fill="#59585B"/>
<path d="M639.159 249.376V220.384H642.056V249.376H639.159Z" fill="#59585B"/>
<path d="M682.99 249.376L665.811 223.878H665.724V249.376H662.827V220.384H666.738L682.903 244.433H682.975V220.384H685.872V249.376H682.975H682.99Z" fill="#59585B"/>
<path d="M732.441 241.766C729.616 246.825 724.576 249.884 719.086 249.884C710.83 249.884 703.935 243.346 703.935 234.909C703.935 226.472 710.714 219.906 719.043 219.906C724.402 219.906 730.008 222.993 732.311 227.821H729.066C726.835 224.487 722.924 222.53 718.999 222.53C712.539 222.53 706.832 228.256 706.832 234.953C706.832 241.65 712.539 247.26 719.043 247.26C722.997 247.26 726.56 245.259 729.182 241.78H732.426L732.441 241.766Z" fill="#59585B"/>
<path d="M738.076 249.376V244.433H740.973V249.376H738.076Z" fill="#59585B"/>
<path d="M74.8287 62.2028C76.002 66.0443 77.1318 78.192 68.9189 86.0634C60.706 93.9347 30.2733 122.68 22.9295 135.176C15.5711 147.672 7.11199 159.254 7.54654 182.23C7.89417 200.829 20.4815 215.861 32.6778 223.631C41.6873 229.372 55.5493 236.431 75.1618 240.577C91.6456 244.056 126.713 244.854 152.352 243.491C178.004 242.128 199.876 238.359 199.876 238.359C199.876 238.359 175.6 247.071 134.738 248.622C93.8763 250.188 66.1812 247.593 40.7024 237.504C15.238 227.386 2.10023 205.047 0.419989 187.869C-2.02795 162.922 6.76436 138.51 14.2096 123.695C23.9579 104.299 28.9696 93.9058 50.6824 66.914C59.4603 55.9985 67.5428 46.692 70.9757 53.2152C74.5535 60.0284 74.8287 62.2028 74.8287 62.2028Z" fill="#7CC242"/>
<path d="M14.0503 156.34C14.0503 156.34 9.69036 164.69 10.5884 168.807C11.4865 172.924 24.2042 193.61 47.322 206.729C70.4398 219.833 91.1387 226.429 111.2 230.227C156.031 238.707 191.432 236.678 191.432 236.678C191.432 236.678 132.102 233.025 94.9772 220.544C68.9624 211.802 60.9088 206.656 51.3053 200.496C45.3376 196.669 36.3715 190.957 26.0003 178.824C17.9902 169.459 13.413 153.847 14.0648 156.34H14.0503Z" fill="#00AF6B"/>
<path d="M5.86629 138.655C5.86629 138.655 6.48914 117.882 17.1645 95.5003C24.7835 79.5256 40.1954 59.6949 43.3531 55.5491C53.2752 42.5606 74.3072 20.686 79.2466 22.9619C82.9402 24.6724 85.7068 28.6008 86.3296 39.8788C86.9525 51.1567 78.9858 58.8687 77.378 59.2166C74.4521 59.8399 73.7423 45.3583 66.8765 47.2863C61.9806 48.6634 51.2618 59.2746 35.8934 81.1492C28.8538 91.1804 22.4225 100.371 18.584 108.619C17.0196 111.997 5.85181 138.655 5.85181 138.655H5.86629Z" fill="#00AF6B"/>
<path d="M188.071 233.75C188.071 233.75 168.719 232.14 151.627 227.125C130.914 221.051 100.945 208.265 82.5636 198.408C67.4704 190.319 50.0886 176.417 37.2115 162.371C27.695 152.006 24.4938 143.758 22.5094 141.279L26.7824 134.814C26.7824 134.814 32.1418 147.643 46.5977 162.429C54.6368 170.648 57.9393 173.214 65.5439 178.954C92.5581 199.307 126.931 213.962 136.36 217.238C144.327 219.993 165.736 227.879 172.196 229.604C178.656 231.329 188.071 233.75 188.071 233.75Z" fill="#00ACE6"/>
<path d="M14.6296 95.6307C14.6296 95.6307 17.4397 85.9619 21.3796 76.3944C26.5072 63.9568 35.8934 45.4743 50.3638 29.4996C57.7655 21.3238 74.3941 5.63903 82.0711 2.55136C88.8211 -0.173903 95.6434 -2.82669 97.2947 6.59577C99.0184 16.4096 98.3811 27.789 95.0351 32.0799C90.9938 37.2695 89.4874 37.7334 88.2561 31.9784C87.0249 26.2235 83.563 19.5843 78.812 19.7437C69.281 20.0771 53.4201 38.5741 41.0645 54.5778C28.8248 70.4221 29.4042 70.4075 24.9139 77.4237C22.8281 80.6853 15.2815 94.616 14.6296 95.6452V95.6307Z" fill="#00ACE6"/>
</g>
<defs>
<clipPath id="clip0_23_95">
<rect width="744" height="252" fill="white"/>
</clipPath>
</defs>
</svg>
