<svg width="111" height="29" viewBox="0 0 111 29" fill="none" xmlns="http://www.w3.org/2000/svg">
<g clip-path="url(#clip0_40_341)">
<path d="M34.189 1.00211H37.4211L47.5199 17.0735V1.00211H50.1391V20.8937H47.0602L36.813 4.84117V20.8937H34.1938V1.00211H34.189Z" fill="#953420"/>
<path d="M60.4582 1.00211H63.5611L70.9065 20.8937H67.9042L65.8499 14.9375H57.8437L55.6506 20.8937H52.8398L60.4582 1.00211ZM64.9641 12.7451L61.8899 3.95668L58.6242 12.7451H64.9641Z" fill="#953420"/>
<path d="M90.0743 3.84848C91.4151 5.60805 92.0855 7.86162 92.0855 10.6045C92.0855 13.5732 91.3193 16.0432 89.7822 18.0097C87.9818 20.3198 85.4152 21.4771 82.0777 21.4771C78.9652 21.4771 76.5136 20.4656 74.7323 18.4426C73.1425 16.4948 72.3477 14.0295 72.3477 11.0467C72.3477 8.35561 73.0276 6.055 74.3875 4.14017C76.1353 1.6843 78.7162 0.45636 82.1352 0.45636C85.5541 0.45636 88.3553 1.5855 90.0743 3.84377V3.84848ZM87.6562 16.5277C88.7336 14.8246 89.2747 12.8675 89.2747 10.6515C89.2747 8.31327 88.6522 6.42667 87.4072 5.00114C86.1622 3.5756 84.4623 2.86048 82.3028 2.86048C80.1432 2.86048 78.5008 3.56619 77.1744 4.98232C75.8528 6.39844 75.192 8.48264 75.192 11.2349C75.192 13.4414 75.757 15.2998 76.8919 16.81C78.0267 18.325 79.8655 19.0824 82.4129 19.0824C84.9603 19.0824 86.5788 18.2309 87.6562 16.5277Z" fill="#953420"/>
<path d="M95.2841 1.00211H104.037C106.422 1.00211 108.122 1.69841 109.127 3.0863C109.721 3.90963 110.013 4.85529 110.013 5.92797C110.013 7.18413 109.649 8.20976 108.926 9.01427C108.548 9.4377 108.007 9.82819 107.298 10.181C108.337 10.5715 109.113 11.0091 109.625 11.4937C110.535 12.3593 110.99 13.5543 110.99 15.0834C110.99 16.3631 110.578 17.5251 109.755 18.5649C108.524 20.1175 106.57 20.8937 103.889 20.8937H95.2793V1.00211H95.2841ZM103.013 9.41418C104.181 9.41418 105.091 9.25421 105.742 8.939C106.762 8.44029 107.274 7.54639 107.274 6.2573C107.274 4.9682 106.733 4.08371 105.646 3.63205C105.033 3.378 104.123 3.25097 102.917 3.25097H97.9752V9.41418H103.017H103.013ZM103.942 18.5931C105.641 18.5931 106.848 18.1132 107.571 17.1582C108.026 16.5513 108.251 15.822 108.251 14.9658C108.251 13.5214 107.59 12.5381 106.259 12.0159C105.555 11.7383 104.621 11.5972 103.463 11.5972H97.9656V18.5978H103.932L103.942 18.5931Z" fill="#953420"/>
<path d="M33.6479 23.8765H34.2417L36.09 26.8217V23.8765H36.5689V27.5227H36.0038L34.1268 24.5823V27.5227H33.6479V23.8765Z" fill="#953420"/>
<path d="M38.7718 25.9137C38.8771 25.8996 38.9442 25.8572 38.9825 25.7867C39.0016 25.749 39.0112 25.6879 39.0112 25.6126C39.0112 25.462 38.9585 25.3491 38.8484 25.2785C38.7382 25.208 38.5802 25.175 38.3743 25.175C38.1397 25.175 37.9673 25.2362 37.8715 25.3632C37.8141 25.4338 37.7806 25.5373 37.7614 25.6737H37.3352C37.3448 25.3444 37.4502 25.1186 37.6609 24.9869C37.8715 24.8551 38.111 24.794 38.3839 24.794C38.6999 24.794 38.9585 24.8551 39.1596 24.9727C39.356 25.0904 39.4565 25.2785 39.4565 25.5279V27.0569C39.4565 27.104 39.4661 27.1416 39.4852 27.1699C39.5044 27.1981 39.5475 27.2122 39.6097 27.2122C39.6289 27.2122 39.6528 27.2122 39.6768 27.2122C39.7007 27.2122 39.7294 27.2075 39.7582 27.2028V27.5321C39.6864 27.5509 39.6337 27.565 39.5954 27.5698C39.5571 27.5745 39.5092 27.5792 39.4421 27.5792C39.2841 27.5792 39.174 27.5227 39.1022 27.4145C39.0639 27.358 39.0399 27.2734 39.0256 27.1699C38.9346 27.2875 38.8005 27.391 38.6281 27.4804C38.4557 27.5698 38.2642 27.6121 38.0535 27.6121C37.8045 27.6121 37.5986 27.5368 37.4406 27.3863C37.2826 27.2357 37.2012 27.0475 37.2012 26.8264C37.2012 26.5818 37.2778 26.3889 37.4358 26.2524C37.5938 26.116 37.7997 26.0313 38.0535 26.0031L38.7766 25.9137H38.7718ZM37.8141 27.1228C37.9099 27.1981 38.0248 27.2357 38.1541 27.2357C38.3121 27.2357 38.4701 27.1981 38.6185 27.1275C38.8723 27.0052 38.9968 26.8076 38.9968 26.5347V26.1772C38.9394 26.2101 38.8675 26.243 38.7813 26.2665C38.6952 26.2901 38.609 26.3042 38.5228 26.3183L38.2498 26.3512C38.087 26.3748 37.9625 26.4077 37.8763 26.4547C37.7375 26.5347 37.6656 26.657 37.6656 26.8264C37.6656 26.9534 37.7135 27.0569 37.8093 27.1322L37.8141 27.1228Z" fill="#953420"/>
<path d="M40.2897 24.1259H40.7494V24.8692H41.1803V25.2315H40.7494V26.9675C40.7494 27.0616 40.7829 27.1228 40.8452 27.1557C40.8787 27.1746 40.9409 27.184 41.0223 27.184C41.0463 27.184 41.0702 27.184 41.0942 27.184C41.1181 27.184 41.1468 27.184 41.1803 27.1746V27.5274C41.1277 27.5415 41.075 27.5509 41.0175 27.5603C40.9601 27.565 40.8978 27.5698 40.8356 27.5698C40.6249 27.5698 40.4812 27.518 40.4046 27.4098C40.328 27.3016 40.2897 27.1651 40.2897 26.9958V25.2362H39.9258V24.8739H40.2897V24.1306V24.1259Z" fill="#953420"/>
<path d="M41.6353 23.8765H42.0997V24.3847H41.6353V23.8765ZM41.6353 24.8787H42.0997V27.5227H41.6353V24.8787Z" fill="#953420"/>
<path d="M43.0091 24.8645L43.7322 27.0287L44.484 24.8645H44.982L43.962 27.5227H43.4784L42.4824 24.8645H43.0091Z" fill="#953420"/>
<path d="M47.0411 24.9398C47.2183 25.0292 47.3571 25.1421 47.4481 25.2832C47.5391 25.415 47.5965 25.5749 47.6301 25.7537C47.6588 25.876 47.6684 26.0736 47.6684 26.3371H45.7003C45.7099 26.6053 45.7722 26.8264 45.8919 26.9864C46.0116 27.151 46.1983 27.231 46.4521 27.231C46.6867 27.231 46.8735 27.1557 47.0171 27.0005C47.0938 26.9111 47.1512 26.8076 47.1847 26.69H47.6301C47.6205 26.7888 47.5774 26.897 47.5103 27.0146C47.4433 27.1322 47.3715 27.231 47.2901 27.3063C47.1512 27.438 46.9836 27.5274 46.7825 27.5745C46.6724 27.6027 46.5527 27.6121 46.4138 27.6121C46.0786 27.6121 45.7961 27.4898 45.5615 27.2498C45.3268 27.0099 45.2119 26.6711 45.2119 26.2383C45.2119 25.8055 45.3268 25.4667 45.5615 25.1986C45.7961 24.9304 46.1026 24.7987 46.4808 24.7987C46.6724 24.7987 46.8543 24.841 47.0363 24.9304L47.0411 24.9398ZM47.2039 25.9843C47.1847 25.7914 47.1416 25.6361 47.0746 25.5185C46.9501 25.3021 46.7442 25.1939 46.4569 25.1939C46.251 25.1939 46.0786 25.2691 45.935 25.415C45.7961 25.5608 45.7195 25.749 45.7099 25.9796H47.1991L47.2039 25.9843Z" fill="#953420"/>
<path d="M50.5413 23.8765H51.1111L52.4566 27.5227H51.906L51.5277 26.4312H50.0624L49.6602 27.5227H49.1431L50.5413 23.8765ZM51.3649 26.0313L50.7999 24.4223L50.2013 26.0313H51.3649Z" fill="#953420"/>
<path d="M52.8496 24.8645H53.2997V25.2409C53.4099 25.1092 53.5056 25.0151 53.5918 24.9539C53.7403 24.8551 53.9126 24.8034 54.1042 24.8034C54.3196 24.8034 54.492 24.8551 54.6261 24.9586C54.6979 25.0198 54.7698 25.1045 54.8272 25.2221C54.9278 25.081 55.0475 24.9727 55.1816 24.9069C55.3156 24.8363 55.4689 24.8034 55.6412 24.8034C56.0052 24.8034 56.2542 24.9304 56.3835 25.1892C56.4553 25.3303 56.4888 25.5138 56.4888 25.749V27.518H56.0147V25.6738C56.0147 25.495 55.9716 25.3774 55.8807 25.3068C55.7897 25.2409 55.6796 25.208 55.5503 25.208C55.3731 25.208 55.2199 25.2644 55.0906 25.3821C54.9613 25.4997 54.899 25.6973 54.899 25.9701V27.518H54.4394V25.782C54.4394 25.6032 54.4154 25.4714 54.3723 25.3868C54.3053 25.2644 54.176 25.1986 53.9845 25.1986C53.8121 25.1986 53.6588 25.2644 53.5152 25.3962C53.3763 25.5279 53.3045 25.7631 53.3045 26.1066V27.518H52.8496V24.8598V24.8645Z" fill="#953420"/>
<path d="M58.8301 24.9398C59.0073 25.0292 59.1462 25.1421 59.2372 25.2832C59.3281 25.415 59.3856 25.5749 59.4191 25.7537C59.4478 25.876 59.4574 26.0736 59.4574 26.3371H57.4894C57.499 26.6053 57.5612 26.8264 57.6809 26.9864C57.8006 27.1463 57.9874 27.231 58.2412 27.231C58.4758 27.231 58.6626 27.1557 58.8062 27.0005C58.8828 26.9111 58.9403 26.8076 58.9738 26.69H59.4191C59.4095 26.7888 59.3664 26.897 59.2994 27.0146C59.2324 27.1322 59.1605 27.231 59.0791 27.3063C58.9403 27.438 58.7727 27.5274 58.5716 27.5745C58.4614 27.6027 58.3417 27.6121 58.2029 27.6121C57.8677 27.6121 57.5852 27.4898 57.3505 27.2498C57.1159 27.0099 57.001 26.6711 57.001 26.2383C57.001 25.8055 57.1159 25.4667 57.3505 25.1986C57.5852 24.9304 57.8916 24.7987 58.2699 24.7987C58.4614 24.7987 58.6434 24.841 58.8254 24.9304L58.8301 24.9398ZM58.993 25.9843C58.9738 25.7914 58.9307 25.6361 58.8637 25.5185C58.7392 25.3021 58.5333 25.1939 58.246 25.1939C58.0401 25.1939 57.8677 25.2691 57.724 25.415C57.5852 25.5608 57.5085 25.749 57.499 25.9796H58.9882L58.993 25.9843Z" fill="#953420"/>
<path d="M60.0463 24.8645H60.4773V25.3256C60.5108 25.2362 60.597 25.128 60.7358 25.001C60.8747 24.8739 61.0327 24.8081 61.2147 24.8081C61.2242 24.8081 61.2386 24.8081 61.2578 24.8081C61.2769 24.8081 61.3104 24.8128 61.3631 24.8175V25.288C61.3344 25.2833 61.3104 25.2785 61.2865 25.2785C61.2625 25.2785 61.2386 25.2785 61.2099 25.2785C60.98 25.2785 60.8029 25.3491 60.6832 25.495C60.5587 25.6408 60.4964 25.8055 60.4964 25.9937V27.5227H60.0415V24.8645H60.0463Z" fill="#953420"/>
<path d="M61.7559 23.8765H62.2203V24.3847H61.7559V23.8765ZM61.7559 24.8787H62.2203V27.5227H61.7559V24.8787Z" fill="#953420"/>
<path d="M64.6912 25.0057C64.8827 25.1515 64.9976 25.4009 65.0359 25.7584H64.5954C64.5667 25.5938 64.5092 25.4573 64.4087 25.3491C64.3129 25.2409 64.1597 25.1845 63.949 25.1845C63.6617 25.1845 63.451 25.3209 63.3265 25.5985C63.2451 25.7773 63.2068 26.0031 63.2068 26.2665C63.2068 26.53 63.2642 26.7558 63.3792 26.9393C63.4941 27.1228 63.676 27.2122 63.9202 27.2122C64.107 27.2122 64.2602 27.1557 64.3703 27.0428C64.4805 26.9299 64.5571 26.7747 64.6002 26.5771H65.0407C64.9881 26.9299 64.8636 27.1887 64.6624 27.3486C64.4613 27.5133 64.2028 27.5933 63.8867 27.5933C63.5324 27.5933 63.2499 27.4663 63.0392 27.2122C62.8285 26.9581 62.7231 26.6429 62.7231 26.2618C62.7231 25.7961 62.8381 25.4338 63.0679 25.1703C63.2978 24.9116 63.5946 24.7798 63.949 24.7798C64.2554 24.7798 64.4996 24.8504 64.6912 24.9963V25.0057Z" fill="#953420"/>
<path d="M66.9417 25.9137C67.047 25.8996 67.1141 25.8572 67.1524 25.7867C67.1715 25.749 67.1811 25.6879 67.1811 25.6126C67.1811 25.462 67.1284 25.3491 67.0183 25.2785C66.9082 25.208 66.7502 25.175 66.5443 25.175C66.3096 25.175 66.1372 25.2362 66.0415 25.3632C65.984 25.4338 65.9505 25.5373 65.9313 25.6737H65.5052C65.5147 25.3444 65.6201 25.1186 65.8308 24.9869C66.0415 24.8551 66.2809 24.794 66.5538 24.794C66.8699 24.794 67.1284 24.8551 67.3295 24.9727C67.5259 25.0904 67.6264 25.2785 67.6264 25.5279V27.0569C67.6264 27.104 67.636 27.1416 67.6552 27.1699C67.6743 27.1981 67.7174 27.2122 67.7797 27.2122C67.7988 27.2122 67.8228 27.2122 67.8467 27.2122C67.8706 27.2122 67.8994 27.2075 67.9281 27.2028V27.5321C67.8563 27.5509 67.8036 27.565 67.7653 27.5698C67.727 27.5745 67.6791 27.5792 67.6121 27.5792C67.454 27.5792 67.3439 27.5227 67.2721 27.4145C67.2338 27.358 67.2098 27.2734 67.1955 27.1699C67.1045 27.2875 66.9704 27.391 66.798 27.4804C66.6257 27.5698 66.4341 27.6121 66.2234 27.6121C65.9744 27.6121 65.7685 27.5368 65.6105 27.3863C65.4525 27.2357 65.3711 27.0475 65.3711 26.8264C65.3711 26.5818 65.4477 26.3889 65.6057 26.2524C65.7637 26.116 65.9696 26.0313 66.2234 26.0031L66.9465 25.9137H66.9417ZM65.984 27.1228C66.0798 27.1981 66.1947 27.2357 66.324 27.2357C66.482 27.2357 66.64 27.1981 66.7885 27.1275C67.0422 27.0052 67.1667 26.8076 67.1667 26.5347V26.1772C67.1093 26.2101 67.0375 26.243 66.9513 26.2665C66.8651 26.2901 66.7789 26.3042 66.6927 26.3183L66.4198 26.3512C66.2569 26.3748 66.1324 26.4077 66.0463 26.4547C65.9074 26.5347 65.8356 26.657 65.8356 26.8264C65.8356 26.9534 65.8834 27.0569 65.9792 27.1322L65.984 27.1228Z" fill="#953420"/>
<path d="M68.3687 24.8645H68.7996V25.2409C68.9289 25.0857 69.063 24.9727 69.2066 24.9069C69.3503 24.841 69.5083 24.8034 69.6855 24.8034C70.0685 24.8034 70.3271 24.9351 70.4612 25.1986C70.533 25.3444 70.5713 25.5467 70.5713 25.8149V27.518H70.1116V25.8431C70.1116 25.6832 70.0877 25.5514 70.0398 25.4526C69.9584 25.288 69.81 25.2033 69.5993 25.2033C69.4891 25.2033 69.4029 25.2127 69.3359 25.2362C69.2114 25.2738 69.1013 25.3444 69.0055 25.4526C68.9289 25.542 68.881 25.6314 68.8571 25.7255C68.8331 25.8196 68.8235 25.9513 68.8235 26.1254V27.518H68.3687V24.8598V24.8645Z" fill="#953420"/>
<path d="M75.8002 24.3988C76.0445 24.7234 76.169 25.1327 76.169 25.6361C76.169 26.1819 76.0301 26.6335 75.7476 26.9911C75.4172 27.4145 74.9479 27.6262 74.335 27.6262C73.7652 27.6262 73.3151 27.4427 72.9895 27.0711C72.6974 26.7135 72.5537 26.2618 72.5537 25.7161C72.5537 25.2221 72.6782 24.8034 72.9272 24.4505C73.248 23.9989 73.7221 23.7777 74.3446 23.7777C74.9671 23.7777 75.4842 23.9847 75.8002 24.3988ZM75.3549 26.7229C75.5512 26.4124 75.6518 26.0501 75.6518 25.6455C75.6518 25.2174 75.5369 24.8739 75.3118 24.6105C75.082 24.347 74.7707 24.22 74.3781 24.22C73.9854 24.22 73.679 24.3517 73.4396 24.6105C73.1954 24.8692 73.0756 25.2503 73.0756 25.7584C73.0756 26.163 73.181 26.5018 73.3869 26.7794C73.5928 27.0569 73.9328 27.1934 74.3972 27.1934C74.8617 27.1934 75.1586 27.0381 75.3597 26.7276L75.3549 26.7229Z" fill="#953420"/>
<path d="M76.916 24.8645L77.4379 26.9581L77.9646 24.8645H78.477L79.0085 26.944L79.5592 24.8645H80.0141L79.2288 27.5227H78.7547L78.204 25.4667L77.6725 27.5227H77.1985L76.418 24.8645H76.916Z" fill="#953420"/>
<path d="M80.4404 24.8645H80.8714V25.2409C81.0007 25.0857 81.1347 24.9727 81.2784 24.9069C81.4221 24.841 81.5801 24.8034 81.7572 24.8034C82.1403 24.8034 82.3989 24.9351 82.533 25.1986C82.6048 25.3444 82.6431 25.5467 82.6431 25.8149V27.518H82.1834V25.8431C82.1834 25.6832 82.1595 25.5514 82.1116 25.4526C82.0302 25.288 81.8817 25.2033 81.671 25.2033C81.5609 25.2033 81.4747 25.2127 81.4077 25.2362C81.2832 25.2738 81.1731 25.3444 81.0773 25.4526C81.0007 25.542 80.9528 25.6314 80.9288 25.7255C80.9049 25.8196 80.8953 25.9513 80.8953 26.1254V27.518H80.4404V24.8598V24.8645Z" fill="#953420"/>
<path d="M84.9844 24.9398C85.1616 25.0292 85.3005 25.1421 85.3915 25.2832C85.4824 25.415 85.5399 25.5749 85.5734 25.7537C85.6021 25.876 85.6117 26.0736 85.6117 26.3371H83.6437C83.6533 26.6053 83.7155 26.8264 83.8352 26.9864C83.9549 27.151 84.1417 27.231 84.3955 27.231C84.6301 27.231 84.8168 27.1557 84.9605 27.0005C85.0371 26.9111 85.0946 26.8076 85.1281 26.69H85.5734C85.5638 26.7888 85.5207 26.897 85.4537 27.0146C85.3867 27.1322 85.3148 27.231 85.2334 27.3063C85.0946 27.438 84.927 27.5274 84.7259 27.5745C84.6157 27.6027 84.496 27.6121 84.3572 27.6121C84.022 27.6121 83.7395 27.4898 83.5048 27.2498C83.2702 27.0099 83.1553 26.6711 83.1553 26.2383C83.1553 25.8055 83.2702 25.4667 83.5048 25.1986C83.7395 24.9304 84.0459 24.7987 84.4242 24.7987C84.6157 24.7987 84.7977 24.841 84.9797 24.9304L84.9844 24.9398ZM85.1473 25.9843C85.1281 25.7914 85.085 25.6361 85.018 25.5185C84.8935 25.3021 84.6876 25.1939 84.4003 25.1939C84.1944 25.1939 84.022 25.2691 83.8783 25.415C83.7395 25.5608 83.6628 25.749 83.6533 25.9796H85.1425L85.1473 25.9843Z" fill="#953420"/>
<path d="M87.6802 24.9492C87.7616 25.001 87.8526 25.0857 87.9532 25.208V23.8671H88.3889V27.5227H87.9819V27.151C87.8766 27.3157 87.7521 27.4333 87.6084 27.5039C87.4648 27.5745 87.2972 27.6121 87.1104 27.6121C86.8087 27.6121 86.5502 27.4898 86.3299 27.2404C86.1096 26.9911 85.9995 26.6617 85.9995 26.2477C85.9995 25.8619 86.1001 25.5232 86.3012 25.2409C86.5023 24.9586 86.7896 24.8175 87.1583 24.8175C87.3642 24.8175 87.5366 24.8598 87.6755 24.9445L87.6802 24.9492ZM86.6651 26.9393C86.7896 27.1322 86.9811 27.2263 87.2541 27.2263C87.4648 27.2263 87.6371 27.1369 87.7712 26.9581C87.9053 26.7794 87.9723 26.5253 87.9723 26.1913C87.9723 25.8572 87.9053 25.6079 87.7616 25.4479C87.6228 25.288 87.4504 25.208 87.2445 25.208C87.0146 25.208 86.8327 25.2927 86.689 25.4667C86.5454 25.6408 86.4784 25.8902 86.4784 26.2242C86.4784 26.5065 86.5406 26.7464 86.6603 26.9393H86.6651Z" fill="#953420"/>
<path d="M90.5532 23.8765H92.1573C92.5931 23.8765 92.9043 24.0036 93.0911 24.2576C93.2012 24.4082 93.2539 24.5823 93.2539 24.7799C93.2539 25.0104 93.1868 25.1986 93.0528 25.3444C92.9857 25.4244 92.8852 25.495 92.7559 25.5561C92.9474 25.6267 93.0863 25.7067 93.1821 25.7961C93.3497 25.956 93.4311 26.1725 93.4311 26.4547C93.4311 26.69 93.3544 26.9017 93.206 27.0899C92.9809 27.3769 92.6218 27.518 92.1334 27.518H90.5532V23.8718V23.8765ZM91.9706 25.4197C92.1861 25.4197 92.3537 25.3915 92.4686 25.335C92.6553 25.2456 92.7511 25.081 92.7511 24.8457C92.7511 24.6105 92.6505 24.4458 92.4542 24.3658C92.3441 24.3188 92.1765 24.2953 91.9562 24.2953H91.0512V25.4244H91.9754L91.9706 25.4197ZM92.1382 27.0993C92.4494 27.0993 92.6697 27.0099 92.8038 26.8358C92.8852 26.7229 92.9283 26.5912 92.9283 26.4359C92.9283 26.1725 92.8086 25.989 92.5644 25.8949C92.4351 25.8431 92.2627 25.8196 92.052 25.8196H91.0464V27.104H92.1382V27.0993Z" fill="#953420"/>
<path d="M94.4078 24.8645V26.6288C94.4078 26.7652 94.427 26.8735 94.4701 26.9628C94.5467 27.1228 94.6951 27.2028 94.9106 27.2028C95.2171 27.2028 95.4278 27.0616 95.5379 26.7841C95.6001 26.6335 95.6289 26.4312 95.6289 26.1725V24.8692H96.0838V27.5274H95.6528V27.1369C95.6001 27.2357 95.5283 27.3251 95.4421 27.391C95.2697 27.5321 95.0638 27.598 94.8244 27.598C94.4461 27.598 94.1876 27.471 94.0535 27.2169C93.9769 27.0805 93.9434 26.9017 93.9434 26.6759V24.8692H94.4078V24.8645Z" fill="#953420"/>
<path d="M97.0993 26.69C97.1137 26.8405 97.152 26.9534 97.2142 27.0334C97.3292 27.1793 97.5351 27.2498 97.8224 27.2498C97.9947 27.2498 98.1432 27.2122 98.2773 27.1416C98.4066 27.0711 98.4736 26.9581 98.4736 26.8076C98.4736 26.6947 98.4209 26.6053 98.3156 26.5488C98.2485 26.5112 98.1193 26.4688 97.9181 26.4218L97.5494 26.3324C97.3148 26.276 97.1424 26.2148 97.0323 26.1442C96.836 26.0219 96.7354 25.8572 96.7354 25.6408C96.7354 25.3915 96.8312 25.1845 97.0179 25.0292C97.2047 24.8739 97.4537 24.794 97.7697 24.794C98.1815 24.794 98.4784 24.9116 98.6651 25.1468C98.7801 25.2974 98.8327 25.4573 98.8327 25.6267H98.4018C98.3922 25.5279 98.3539 25.4338 98.2916 25.3538C98.1863 25.2362 97.9995 25.1797 97.7362 25.1797C97.559 25.1797 97.4249 25.2127 97.3387 25.2738C97.2478 25.3397 97.2047 25.4244 97.2047 25.5279C97.2047 25.6455 97.2621 25.7349 97.3818 25.8055C97.4489 25.8478 97.5494 25.8808 97.6835 25.9137L97.99 25.9843C98.3252 26.0642 98.5454 26.1395 98.6603 26.2101C98.8375 26.323 98.9237 26.5018 98.9237 26.7464C98.9237 26.9911 98.8327 27.1887 98.646 27.358C98.4592 27.5274 98.1815 27.6168 97.8032 27.6168C97.3962 27.6168 97.1089 27.5274 96.9365 27.3486C96.7641 27.1699 96.6779 26.9487 96.6636 26.6806H97.0993V26.69Z" fill="#953420"/>
<path d="M99.4165 23.8765H99.881V24.3847H99.4165V23.8765ZM99.4165 24.8787H99.881V27.5227H99.4165V24.8787Z" fill="#953420"/>
<path d="M100.566 24.8645H100.997V25.2409C101.126 25.0857 101.26 24.9727 101.404 24.9069C101.548 24.841 101.706 24.8034 101.883 24.8034C102.266 24.8034 102.524 24.9351 102.658 25.1986C102.73 25.3444 102.769 25.5467 102.769 25.8149V27.518H102.309V25.8431C102.309 25.6832 102.285 25.5514 102.237 25.4526C102.156 25.288 102.007 25.2033 101.797 25.2033C101.686 25.2033 101.6 25.2127 101.533 25.2362C101.409 25.2738 101.299 25.3444 101.203 25.4526C101.126 25.542 101.078 25.6314 101.054 25.7255C101.03 25.8196 101.021 25.9513 101.021 26.1254V27.518H100.566V24.8598V24.8645Z" fill="#953420"/>
<path d="M105.115 24.9398C105.292 25.0292 105.431 25.1421 105.522 25.2832C105.613 25.415 105.67 25.5749 105.704 25.7537C105.733 25.876 105.742 26.0736 105.742 26.3371H103.774C103.784 26.6053 103.846 26.8264 103.966 26.9864C104.085 27.1463 104.272 27.231 104.526 27.231C104.76 27.231 104.947 27.1557 105.091 27.0005C105.167 26.9111 105.225 26.8076 105.258 26.69H105.704C105.694 26.7888 105.651 26.897 105.584 27.0146C105.517 27.1322 105.445 27.231 105.364 27.3063C105.225 27.438 105.057 27.5274 104.856 27.5745C104.746 27.6027 104.626 27.6121 104.488 27.6121C104.152 27.6121 103.87 27.4898 103.635 27.2498C103.401 27.0099 103.286 26.6711 103.286 26.2383C103.286 25.8055 103.401 25.4667 103.635 25.1986C103.87 24.9304 104.176 24.7987 104.555 24.7987C104.746 24.7987 104.928 24.841 105.11 24.9304L105.115 24.9398ZM105.278 25.9843C105.258 25.7914 105.215 25.6361 105.148 25.5185C105.024 25.3021 104.818 25.1939 104.531 25.1939C104.325 25.1939 104.152 25.2691 104.009 25.415C103.87 25.5608 103.793 25.749 103.784 25.9796H105.273L105.278 25.9843Z" fill="#953420"/>
<path d="M106.59 26.69C106.604 26.8405 106.642 26.9534 106.704 27.0334C106.819 27.1793 107.025 27.2498 107.313 27.2498C107.485 27.2498 107.633 27.2122 107.767 27.1416C107.897 27.0711 107.964 26.9581 107.964 26.8076C107.964 26.6947 107.911 26.6053 107.806 26.5488C107.739 26.5112 107.609 26.4688 107.408 26.4218L107.04 26.3324C106.805 26.276 106.633 26.2148 106.523 26.1442C106.326 26.0219 106.226 25.8572 106.226 25.6408C106.226 25.3915 106.321 25.1845 106.508 25.0292C106.695 24.8739 106.944 24.794 107.26 24.794C107.672 24.794 107.969 24.9116 108.155 25.1468C108.27 25.2974 108.323 25.4573 108.323 25.6267H107.892C107.882 25.5279 107.844 25.4338 107.782 25.3538C107.677 25.2362 107.49 25.1797 107.226 25.1797C107.049 25.1797 106.915 25.2127 106.829 25.2738C106.738 25.3397 106.695 25.4244 106.695 25.5279C106.695 25.6455 106.752 25.7349 106.872 25.8055C106.939 25.8478 107.04 25.8808 107.174 25.9137L107.48 25.9843C107.815 26.0642 108.036 26.1395 108.151 26.2101C108.328 26.323 108.414 26.5018 108.414 26.7464C108.414 26.9911 108.323 27.1887 108.136 27.358C107.949 27.5321 107.672 27.6168 107.293 27.6168C106.886 27.6168 106.599 27.5274 106.427 27.3486C106.259 27.1699 106.168 26.9487 106.154 26.6806H106.59V26.69Z" fill="#953420"/>
<path d="M109.175 26.69C109.19 26.8405 109.228 26.9534 109.29 27.0334C109.405 27.1793 109.611 27.2498 109.899 27.2498C110.071 27.2498 110.219 27.2122 110.353 27.1416C110.483 27.0711 110.55 26.9581 110.55 26.8076C110.55 26.6947 110.497 26.6053 110.392 26.5488C110.325 26.5112 110.195 26.4688 109.994 26.4218L109.626 26.3324C109.391 26.276 109.219 26.2148 109.108 26.1442C108.912 26.0219 108.812 25.8572 108.812 25.6408C108.812 25.3915 108.907 25.1845 109.094 25.0292C109.281 24.8739 109.53 24.794 109.846 24.794C110.258 24.794 110.555 24.9116 110.741 25.1468C110.856 25.2974 110.909 25.4573 110.909 25.6267H110.478C110.468 25.5279 110.43 25.4338 110.368 25.3538C110.262 25.2362 110.076 25.1797 109.812 25.1797C109.635 25.1797 109.501 25.2127 109.415 25.2738C109.324 25.3397 109.281 25.4244 109.281 25.5279C109.281 25.6455 109.338 25.7349 109.458 25.8055C109.525 25.8478 109.626 25.8808 109.76 25.9137L110.066 25.9843C110.401 26.0642 110.622 26.1395 110.737 26.2101C110.914 26.323 111 26.5018 111 26.7464C111 26.9911 110.909 27.1887 110.722 27.358C110.535 27.5274 110.258 27.6168 109.879 27.6168C109.472 27.6168 109.185 27.5274 109.013 27.3486C108.845 27.1699 108.754 26.9487 108.74 26.6806H109.175V26.69Z" fill="#953420"/>
<path d="M14.8296 18.6025V27.231L15.7442 28.1296L15.4234 22.6627C15.4234 22.6627 17.2765 19.2518 17.7027 17.0123C18.1336 14.7729 18.2964 12.9521 18.2964 12.9521L17.5351 13.3097C17.5351 13.3097 17.741 12.971 18.0379 12.7404C18.3348 12.5146 18.2964 12.3358 18.2964 12.3358C18.2964 12.3358 18.7609 9.60707 18.2964 7.79104C17.832 5.97031 17.5016 5.0623 17.5016 5.0623L17.0371 6.06911C17.0371 6.06911 17.1281 5.55629 17.1472 5.01995C17.1568 4.69062 17.1377 4.51184 17.1377 4.51184C17.1377 4.51184 16.6732 3.0816 15.6485 2.00892C14.6237 0.936242 13.4027 0.385788 13.4027 0.385788C13.4027 0.385788 13.8193 1.34555 13.8863 2.30532C13.9246 2.88871 13.8767 3.39682 13.8767 3.39682L14.2024 3.68381L13.9007 4.12135L14.0348 6.39374L13.8001 5.99383L13.6565 7.75811C13.6565 7.75811 13.7953 7.87573 13.9965 8.25681C14.1545 8.54851 14.1641 8.95782 14.1641 8.95782L13.4027 8.37443C13.4027 8.37443 13.3357 9.9317 12.876 11.5266C12.4163 13.1215 11.9183 13.8319 11.8513 15.0975C11.7842 16.3631 12.3492 17.8592 12.3492 17.8592L11.5879 17.2852C11.5879 17.2852 11.7172 20.1974 12.3492 21.5947C13.2926 23.6836 14.346 24.3894 14.346 24.3894L14.8296 18.6072V18.6025Z" fill="#953420"/>
<path d="M12.1765 29L12.0041 28.9765C11.9036 28.9624 2.26928 27.598 2.05859 13.4603C2.05859 13.3191 2.05859 13.178 2.05859 13.0321V12.9898C2.05859 5.63158 11.1757 1.26558 11.2715 1.22324L11.6546 1.35497C11.5636 1.39731 2.35547 5.81976 2.35547 12.9945V13.0039C2.35547 14.6176 2.48476 16.4666 2.8822 18.3297C4.88854 27.5886 11.9514 28.3837 12.0328 28.3884L12.1669 28.4025L12.1765 29.0047V29Z" fill="#953420"/>
<path d="M1.63281 22.4651C1.63281 22.4651 2.0111 23.7871 3.18904 24.9445C4.36699 26.1019 6.31587 25.5467 6.31587 25.5467C6.31587 25.5467 4.96075 24.093 4.1994 23.5943C3.20341 22.945 1.63281 22.4651 1.63281 22.4651Z" fill="#953420"/>
<path d="M5.49195 20.5127C5.49195 20.5127 6.54539 21.4583 6.9572 23.0485C7.59884 25.5091 6.18626 25.5279 6.18626 25.5279C6.18626 25.5279 5.24774 24.0741 5.26689 23.2649C5.29562 22.0887 5.49195 20.5079 5.49195 20.5079V20.5127Z" fill="#953420"/>
<path d="M0.459473 18.132C0.459473 18.132 0.469049 19.3929 1.23519 20.7055C2.00134 22.0182 3.86403 21.9805 3.86403 21.9805C3.86403 21.9805 3.01648 20.3668 2.46103 19.7458C1.73319 18.9319 0.459473 18.132 0.459473 18.132Z" fill="#953420"/>
<path d="M4.36219 17.3087C4.36219 17.3087 5.06608 18.3955 5.04214 19.9105C5.00862 22.2487 3.74927 21.9335 3.74927 21.9335C3.74927 21.9335 3.27043 20.4186 3.48591 19.7081C3.80194 18.6684 4.36219 17.3134 4.36219 17.3134V17.3087Z" fill="#953420"/>
<path d="M0.0522409 13.5826C0.0522409 13.5826 -0.182391 14.8246 0.320392 16.2549C0.818386 17.6851 2.65713 17.9956 2.65713 17.9956C2.65713 17.9956 2.35546 16.1184 1.59411 15.1775C0.909365 14.3306 0.0522409 13.5826 0.0522409 13.5826Z" fill="#953420"/>
<path d="M4.32366 13.5826C4.32366 13.5826 4.52956 14.6976 4.21832 16.1796C3.73469 18.4708 2.55674 17.9251 2.55674 17.9251C2.55674 17.9251 2.51364 16.4007 2.72912 15.6903C3.07868 14.5329 4.32366 13.5826 4.32366 13.5826Z" fill="#953420"/>
<path d="M1.13956 9.31538C1.13956 9.31538 0.550589 10.3081 0.531435 11.6819C0.512281 13.0557 1.98711 13.8743 1.98711 13.8743C1.98711 13.8743 2.31751 12.1806 1.95838 11.1455C1.63756 10.214 1.13956 9.31538 1.13956 9.31538Z" fill="#953420"/>
<path d="M4.78827 10.6045C4.78827 10.6045 4.61589 11.6207 3.88805 12.7922C2.75799 14.6035 1.9248 13.7849 1.9248 13.7849C1.9248 13.7849 2.36055 12.4676 2.77235 11.9265C3.43315 11.042 4.79306 10.6045 4.79306 10.6045H4.78827Z" fill="#953420"/>
<path d="M3.54789 5.32106C3.54789 5.32106 2.89667 6.04088 2.40346 7.1465C1.91025 8.24741 2.81526 9.40948 2.81526 9.40948C2.81526 9.40948 3.67239 8.14861 3.73943 7.19355C3.80167 6.33258 3.5431 5.32106 3.5431 5.32106H3.54789Z" fill="#953420"/>
<path d="M6.55044 7.17472C6.55044 7.17472 5.72684 8.46852 4.73085 9.16953C3.18898 10.2563 3.0166 9.40477 3.0166 9.40477C3.0166 9.40477 3.7588 8.1486 4.24243 7.79575C5.16181 7.12767 6.55523 7.17002 6.55523 7.17002L6.55044 7.17472Z" fill="#953420"/>
<path d="M7.1153 2.32414C7.1153 2.32414 5.9182 2.51233 5.2191 3.78732C4.68279 4.7659 5.08981 6.01266 5.08981 6.01266C5.08981 6.01266 6.26297 4.81765 6.69392 4.07901C7.10573 3.378 7.11052 2.32885 7.11052 2.32885L7.1153 2.32414Z" fill="#953420"/>
<path d="M9.35631 4.1684C9.35631 4.1684 8.26934 5.42927 7.16801 5.89974C5.46334 6.62427 5.08984 6.01265 5.08984 6.01265C5.08984 6.01265 6.37792 4.8647 6.91901 4.62476C7.93894 4.1731 9.35631 4.1684 9.35631 4.1684Z" fill="#953420"/>
<path d="M11.7124 0C11.7124 0 9.89756 0.249351 9.07396 1.16677C8.44189 1.87249 8.53287 2.96869 8.53287 2.96869C8.53287 2.96869 10.1992 1.83485 10.702 1.30792C11.1761 0.809215 11.7124 0 11.7124 0Z" fill="#953420"/>
<path d="M13.0915 2.16419C13.0915 2.16419 11.8992 2.79932 10.9032 2.97811C9.36136 3.25098 8.74365 2.92165 8.74365 2.92165C8.74365 2.92165 10.07 2.14537 10.5585 2.05127C11.4826 1.87249 13.0915 2.16419 13.0915 2.16419Z" fill="#953420"/>
<path d="M17.7412 29L17.9136 28.9765C18.0142 28.9624 27.6484 27.598 27.8591 13.4602C27.8591 13.3191 27.8591 13.178 27.8591 13.0321V12.9898C27.8591 5.62686 18.742 1.26086 18.6462 1.21852L18.2631 1.35025C18.3541 1.3926 27.5622 5.81505 27.5622 12.9898V12.9992C27.5622 14.6129 27.4329 16.4619 27.0355 18.3249C25.0292 27.5839 17.9663 28.379 17.8849 28.3837L17.7508 28.3978L17.7412 29Z" fill="#953420"/>
<path d="M28.2851 22.4651C28.2851 22.4651 27.9068 23.7871 26.7289 24.9445C25.5461 26.1066 23.6021 25.5467 23.6021 25.5467C23.6021 25.5467 24.9572 24.093 25.7185 23.5943C26.7145 22.945 28.2851 22.4651 28.2851 22.4651Z" fill="#953420"/>
<path d="M24.4259 20.5127C24.4259 20.5127 23.3724 21.4583 22.9606 23.0485C22.319 25.5091 23.7315 25.5279 23.7315 25.5279C23.7315 25.5279 24.6701 24.0741 24.6509 23.2649C24.6222 22.0887 24.4259 20.5079 24.4259 20.5079V20.5127Z" fill="#953420"/>
<path d="M29.4583 18.132C29.4583 18.132 29.4487 19.3929 28.6825 20.7055C27.9164 22.0182 26.0537 21.9805 26.0537 21.9805C26.0537 21.9805 26.9013 20.3668 27.4567 19.7458C28.1846 18.9319 29.4583 18.132 29.4583 18.132Z" fill="#953420"/>
<path d="M25.5512 17.3087C25.5512 17.3087 24.8473 18.3955 24.8712 19.9105C24.9047 22.2487 26.1641 21.9335 26.1641 21.9335C26.1641 21.9335 26.6429 20.4186 26.4274 19.7081C26.1114 18.6684 25.5512 17.3134 25.5512 17.3134V17.3087Z" fill="#953420"/>
<path d="M29.8608 13.5826C29.8608 13.5826 30.0954 14.8246 29.5926 16.2549C29.0946 17.6851 27.2559 17.9956 27.2559 17.9956C27.2559 17.9956 27.5575 16.1184 28.3189 15.1775C29.0036 14.3306 29.8608 13.5826 29.8608 13.5826Z" fill="#953420"/>
<path d="M25.5941 13.5826C25.5941 13.5826 25.3882 14.6976 25.6995 16.1796C26.1831 18.4708 27.3611 17.9251 27.3611 17.9251C27.3611 17.9251 27.4041 16.4007 27.1887 15.6903C26.8391 14.5329 25.5941 13.5826 25.5941 13.5826Z" fill="#953420"/>
<path d="M28.7787 9.31538C28.7787 9.31538 29.3677 10.3081 29.3868 11.6819C29.406 13.0557 27.9312 13.8743 27.9312 13.8743C27.9312 13.8743 27.6008 12.1806 27.9599 11.1455C28.2807 10.214 28.7787 9.31538 28.7787 9.31538Z" fill="#953420"/>
<path d="M25.1298 10.6045C25.1298 10.6045 25.3022 11.6207 26.03 12.7922C27.1601 14.6035 27.9933 13.7849 27.9933 13.7849C27.9933 13.7849 27.5575 12.4676 27.1457 11.9265C26.4849 11.042 25.125 10.6045 25.125 10.6045H25.1298Z" fill="#953420"/>
<path d="M26.3653 5.32106C26.3653 5.32106 27.0165 6.04088 27.5097 7.1465C28.0029 8.24741 27.0979 9.40948 27.0979 9.40948C27.0979 9.40948 26.2408 8.14861 26.1737 7.19355C26.1115 6.33258 26.3701 5.32106 26.3701 5.32106H26.3653Z" fill="#953420"/>
<path d="M23.3676 7.17472C23.3676 7.17472 24.1912 8.46852 25.1872 9.16953C26.729 10.2563 26.9014 9.40477 26.9014 9.40477C26.9014 9.40477 26.1592 8.1486 25.6756 7.79575C24.7562 7.12767 23.3628 7.17002 23.3628 7.17002L23.3676 7.17472Z" fill="#953420"/>
<path d="M22.7979 2.32414C22.7979 2.32414 23.995 2.51233 24.6941 3.78732C25.2304 4.7659 24.8233 6.01266 24.8233 6.01266C24.8233 6.01266 23.6502 4.81765 23.2192 4.07901C22.8074 3.378 22.8026 2.32885 22.8026 2.32885L22.7979 2.32414Z" fill="#953420"/>
<path d="M20.5566 4.1684C20.5566 4.1684 21.6436 5.42927 22.7449 5.89974C24.4496 6.62427 24.8231 6.01265 24.8231 6.01265C24.8231 6.01265 23.535 4.8647 22.9939 4.62476C21.974 4.1731 20.5566 4.1684 20.5566 4.1684Z" fill="#953420"/>
<path d="M18.2056 0C18.2056 0 20.0204 0.249351 20.844 1.16677C21.476 1.87249 21.3851 2.96869 21.3851 2.96869C21.3851 2.96869 19.7187 1.83485 19.2159 1.30792C18.7419 0.809215 18.2056 0 18.2056 0Z" fill="#953420"/>
<path d="M16.8267 2.16419C16.8267 2.16419 18.019 2.79932 19.015 2.97811C20.5568 3.25098 21.1745 2.92165 21.1745 2.92165C21.1745 2.92165 19.8481 2.14537 19.3597 2.05127C18.4356 1.87249 16.8267 2.16419 16.8267 2.16419Z" fill="#953420"/>
</g>
<defs>
<clipPath id="clip0_40_341">
<rect width="111" height="29" fill="white"/>
</clipPath>
</defs>
</svg>
