<svg width="112" height="47" viewBox="0 0 112 47" fill="none" xmlns="http://www.w3.org/2000/svg">
<g clip-path="url(#clip0_40_274)">
<path d="M9.94977 42.712C9.94977 43.9659 8.90118 45.0331 7.57739 45.0331C6.25361 45.0331 5.18604 44.0329 5.18604 42.712C5.18604 41.8363 5.7127 40.9988 6.46712 40.6925C5.91198 40.3336 5.58934 39.788 5.58934 39.185C5.58934 38.0939 6.44814 37.2277 7.5679 37.2277C8.68767 37.2277 9.54647 38.1465 9.54647 39.2042C9.54647 39.7832 9.21433 40.3766 8.65445 40.6925C9.49427 41.1088 9.94503 41.8554 9.94503 42.712H9.94977ZM9.2001 42.712C9.2001 41.8458 8.50262 41.0801 7.54418 41.0801C6.71385 41.0801 5.92622 41.8028 5.92622 42.6785C5.92622 43.6357 6.63319 44.3487 7.58214 44.3487C8.53109 44.3487 9.2001 43.5926 9.2001 42.7073V42.712ZM7.57265 37.912C6.86568 37.912 6.32952 38.4815 6.32952 39.1563C6.32952 39.8311 6.90364 40.3814 7.57265 40.3814C8.24166 40.3814 8.7968 39.8311 8.7968 39.1563C8.7968 38.4815 8.26064 37.912 7.57265 37.912Z" fill="#22346A"/>
<path d="M13.9495 46.9904C12.2129 46.3874 10.8369 44.2195 10.8369 42.0899C10.8369 39.9603 12.0706 37.8833 13.9495 37.1894V37.9551C12.526 38.8213 11.5866 40.525 11.5866 42.0899C11.5866 43.6548 12.5071 45.3729 13.9495 46.2582V46.9904Z" fill="#22346A"/>
<path d="M19.6576 44.9039V43.9276H19.6386C19.1831 44.6215 18.386 45.0379 17.4893 45.0379C15.8333 45.0379 14.519 43.7745 14.519 42.1043C14.519 40.4341 15.8713 39.1898 17.4893 39.1898C18.4097 39.1898 19.1974 39.6062 19.6386 40.3097H19.6576V39.3334H20.3646V44.9087H19.6576V44.9039ZM19.7003 42.1186C19.7003 40.8744 18.7324 39.8263 17.4798 39.8263C16.2272 39.8263 15.226 40.8026 15.226 42.1282C15.226 43.4538 16.1845 44.3918 17.4893 44.3918C18.7229 44.3918 19.7003 43.3725 19.7003 42.1186Z" fill="#22346A"/>
<path d="M21.1377 46.2582C22.6228 45.3537 23.5006 43.6596 23.5006 42.0899C23.5006 40.5202 22.5706 38.8213 21.1377 37.9551V37.1894C22.9882 37.8642 24.2503 40.0512 24.2503 42.0708C24.2503 44.0903 23.0498 46.2582 21.1377 47V46.2582Z" fill="#22346A"/>
<path d="M35.3153 42.9226C34.5894 44.2387 33.2846 45.0331 31.8706 45.0331C29.7402 45.0331 27.9609 43.3294 27.9609 41.1424C27.9609 38.9553 29.707 37.242 31.8611 37.242C33.2466 37.242 34.689 38.046 35.2868 39.2999H34.447C33.8729 38.4337 32.8623 37.9264 31.8516 37.9264C30.1862 37.9264 28.7106 39.4147 28.7106 41.1567C28.7106 42.8987 30.1862 44.3583 31.8611 44.3583C32.8813 44.3583 33.8017 43.8367 34.4802 42.9322H35.3153V42.9226Z" fill="#22346A"/>
<path d="M36.8526 42.3771C36.9143 43.4873 37.9249 44.3966 38.9925 44.3966C39.8513 44.3966 40.6722 43.8989 40.9711 43.0805H41.716C41.2937 44.2817 40.1834 45.0379 38.9973 45.0379C37.4315 45.0379 36.1172 43.7553 36.1172 42.1234C36.1172 40.4915 37.441 39.1898 38.9878 39.1898C40.6437 39.1898 41.8868 40.6255 41.8868 42.1665C41.8868 42.2383 41.8773 42.3101 41.8773 42.3818H36.8479L36.8526 42.3771ZM41.1656 41.7358C40.9616 40.6159 40.0838 39.8311 38.9925 39.8311C37.9629 39.8311 37.0424 40.5872 36.8526 41.7358H41.1656Z" fill="#22346A"/>
<path d="M42.9688 44.9039V39.3286H43.6757V40.1326H43.6947C43.9367 39.5535 44.3637 39.2377 45.251 39.185V39.9411H45.2415C44.2214 40.0416 43.6757 40.7164 43.6757 41.6113V44.9039H42.9688Z" fill="#22346A"/>
<path d="M46.6551 44.9039V39.9746H45.4927V39.3334H46.6551V37.3665H47.3621V39.3334H48.6859V39.9746H47.3621V44.9039H46.6551Z" fill="#22346A"/>
<path d="M49.4355 38.6442V37.3617H50.1425V38.6442H49.4355ZM49.4355 44.9039V39.3286H50.1425V44.9039H49.4355Z" fill="#22346A"/>
<path d="M54.3557 44.9039V39.9747H52.5575V44.9039H51.8505V39.9747H50.9917V39.3334H51.8505V39.252C51.8505 37.6727 52.8089 37.2325 53.9714 37.2325V37.8929C53.0841 37.8929 52.5575 38.2087 52.5575 39.2089V39.3286H55.0627V44.9039H54.3557ZM54.3557 38.6442V37.3617H55.0627V38.6442H54.3557Z" fill="#22346A"/>
<path d="M56.8326 42.3771C56.8943 43.4873 57.9049 44.3966 58.9725 44.3966C59.8313 44.3966 60.6521 43.8989 60.9511 43.0805H61.696C61.2737 44.2817 60.1634 45.0379 58.9772 45.0379C57.4115 45.0379 56.0972 43.7553 56.0972 42.1234C56.0972 40.4915 57.421 39.1898 58.9677 39.1898C60.6237 39.1898 61.8668 40.6255 61.8668 42.1665C61.8668 42.2383 61.8573 42.3101 61.8573 42.3818H56.8231L56.8326 42.3771ZM61.1503 41.7358C60.9463 40.6159 60.0685 39.8311 58.9772 39.8311C57.9476 39.8311 57.0271 40.5872 56.8373 41.7358H61.1503Z" fill="#22346A"/>
<path d="M67.8266 44.9039V43.9276H67.8076C67.3236 44.6502 66.517 45.0379 65.6582 45.0379C64.0023 45.0379 62.688 43.7745 62.688 42.1043C62.688 40.4341 64.0402 39.1898 65.6582 39.1898C66.517 39.1898 67.3331 39.5966 67.8076 40.2905H67.8266V37.3665H68.5335V44.9039H67.8266ZM67.8693 42.1186C67.8693 40.8743 66.9108 39.8263 65.6487 39.8263C64.3866 39.8263 63.395 40.8121 63.395 42.1282C63.395 43.4442 64.3439 44.3918 65.6582 44.3918C66.8824 44.3918 67.8693 43.382 67.8693 42.1186Z" fill="#22346A"/>
<path d="M32.1744 28.7379H6.93707H6.69035V28.4891V24.962H4.45557V30.992H32.1744V28.7379Z" fill="#21346A"/>
<path d="M4.49316 6.02994H6.72794V2.49812V2.25405H6.97467H32.7577H33.0044V2.49812V6.02994H35.2392V0H4.49316V6.02994Z" fill="#21346A"/>
<path d="M2.69502 18.2717C2.714 19.0565 3.08884 20.5449 5.54188 20.5449C6.87041 20.5449 8.35077 20.2099 8.35077 18.7215C8.35077 17.6208 7.34014 17.3289 5.91671 16.9748L4.47431 16.6206C2.30121 16.0894 0.204025 15.5821 0.204025 12.481C0.204025 10.9113 1.01063 8.1452 5.37107 8.1452C9.48952 8.1452 10.595 10.9687 10.614 12.6964H7.919C7.84308 12.0694 7.62008 10.5763 5.16704 10.5763C4.09947 10.5763 2.82788 10.9879 2.82788 12.2657C2.82788 13.3664 3.68668 13.6009 4.2513 13.7349L7.52993 14.5771C9.36615 15.0461 11.0505 15.831 11.0505 18.3626C11.0505 22.6027 6.93209 22.9712 5.75065 22.9712C0.844567 22.9712 0 20.0089 0 18.2621H2.69502V18.2717Z" fill="#21346A"/>
<path d="M14.5995 8.52327H21.3845C24.8054 8.52327 25.6832 10.6816 25.6832 12.1317C25.6832 14.1512 24.554 14.7207 23.9704 15.0174C25.6832 15.6635 26.1292 17.037 26.1292 18.4296C26.1292 19.5494 25.6642 20.6071 24.9241 21.3345C24.1269 22.1193 23.3678 22.6075 20.5067 22.6075H14.5947V8.52327H14.5995ZM17.3989 14.0364H20.8198C21.9681 14.0364 22.8838 13.5865 22.8838 12.4667C22.8838 11.3468 22.0677 10.9544 20.7439 10.9544H17.3989V14.0364ZM17.3989 20.1764H20.9764C22.3951 20.1764 23.216 19.5494 23.216 18.1185C23.216 16.8838 22.1674 16.41 21.114 16.41H17.3989V20.1764Z" fill="#21346A"/>
<path d="M35.2156 8.51848H32.9998L28.5635 22.6123H31.3629L34.0816 13.3616L36.8431 22.6123H39.6472L35.2156 8.51848Z" fill="#21346A"/>
<path d="M35.1968 28.7235L32.981 30.992V22.6458H35.1968V28.7235Z" fill="#21346A"/>
<path d="M47.666 8.49455H48.316V11.5478C48.316 11.8589 48.3493 12.1173 48.4109 12.3279C48.4726 12.5384 48.558 12.7059 48.6672 12.8351C48.7763 12.9596 48.8997 13.0505 49.0467 13.1079C49.1938 13.1654 49.3504 13.1893 49.5165 13.1893C49.6825 13.1893 49.8486 13.1606 49.9957 13.1079C50.1428 13.0553 50.2709 12.9596 50.38 12.8351C50.4891 12.7107 50.5746 12.5384 50.6362 12.3279C50.6979 12.1173 50.7311 11.8589 50.7311 11.5478V8.49455H51.3574V11.5334C51.3574 11.9498 51.31 12.2992 51.2151 12.5815C51.1202 12.8639 50.9921 13.0936 50.826 13.2706C50.66 13.4477 50.4654 13.5721 50.2424 13.6487C50.0194 13.7253 49.7774 13.7636 49.5165 13.7636C49.2555 13.7636 49.0135 13.7253 48.7858 13.6487C48.558 13.5721 48.3635 13.4477 48.1974 13.2706C48.0314 13.0936 47.9033 12.8639 47.8084 12.5815C47.7135 12.2992 47.666 11.945 47.666 11.5334V8.49455Z" fill="#21346A"/>
<path d="M51.832 13.2802C51.832 13.1271 51.8795 13.0074 51.9696 12.9117C52.0598 12.816 52.1737 12.7729 52.3018 12.7729C52.4299 12.7729 52.5343 12.8208 52.6244 12.9117C52.7146 13.0026 52.762 13.1271 52.762 13.2802C52.762 13.4238 52.7146 13.5386 52.6244 13.6296C52.5343 13.7205 52.4251 13.7684 52.3018 13.7684C52.1784 13.7684 52.0598 13.7205 51.9696 13.6296C51.8795 13.5386 51.832 13.419 51.832 13.2802Z" fill="#21346A"/>
<path d="M53.8722 12.5432C54.0525 12.7394 54.2708 12.8926 54.5175 13.0122C54.7642 13.1319 55.0204 13.1893 55.2861 13.1893C55.6278 13.1893 55.8887 13.1127 56.0785 12.9548C56.2683 12.8017 56.3584 12.5959 56.3584 12.3422C56.3584 12.213 56.3347 12.0982 56.292 12.0072C56.2493 11.9163 56.1876 11.8349 56.1117 11.7727C56.0358 11.7057 55.9457 11.6483 55.8413 11.5957C55.7369 11.543 55.623 11.4904 55.5044 11.4282L54.769 11.1027C54.6503 11.0501 54.527 10.9879 54.3989 10.9113C54.2755 10.8395 54.1616 10.7486 54.062 10.6433C53.9623 10.538 53.8817 10.4136 53.82 10.27C53.7583 10.1265 53.7251 9.95897 53.7251 9.76754C53.7251 9.57612 53.7678 9.38948 53.8485 9.22198C53.9291 9.05448 54.043 8.90612 54.1853 8.7817C54.3277 8.65727 54.4985 8.56156 54.693 8.49456C54.8876 8.42756 55.1058 8.39406 55.3383 8.39406C55.6467 8.39406 55.9314 8.45149 56.1924 8.57113C56.4533 8.69077 56.6763 8.84391 56.8566 9.03055L56.5055 9.45648C56.349 9.30333 56.1734 9.18369 55.9836 9.09755C55.7938 9.01141 55.5756 8.96834 55.3383 8.96834C55.0489 8.96834 54.8211 9.03534 54.6456 9.16934C54.47 9.30333 54.3846 9.48997 54.3846 9.72447C54.3846 9.8489 54.4084 9.95897 54.4605 10.0451C54.508 10.1313 54.5744 10.2078 54.6598 10.2748C54.7452 10.3418 54.8354 10.3993 54.935 10.4471C55.0347 10.495 55.1343 10.5428 55.2387 10.5859L55.9646 10.9017C56.1117 10.964 56.2493 11.0357 56.3774 11.1171C56.5055 11.1985 56.6194 11.2942 56.7143 11.3995C56.8092 11.5095 56.8851 11.634 56.9373 11.7775C56.9942 11.9211 57.018 12.0886 57.018 12.28C57.018 12.4858 56.9753 12.6772 56.8946 12.8543C56.8139 13.0314 56.6953 13.1893 56.5482 13.3233C56.3964 13.4573 56.2161 13.5626 55.9978 13.6391C55.7843 13.7157 55.5423 13.754 55.2719 13.754C54.9113 13.754 54.5792 13.687 54.2708 13.5482C53.9623 13.4094 53.6966 13.2228 53.4736 12.9883L53.8627 12.5289L53.8722 12.5432Z" fill="#21346A"/>
<path d="M57.7251 13.2802C57.7251 13.1271 57.7725 13.0074 57.8627 12.9117C57.9528 12.816 58.0667 12.7729 58.1948 12.7729C58.3229 12.7729 58.4273 12.8208 58.5175 12.9117C58.6076 13.0026 58.6551 13.1271 58.6551 13.2802C58.6551 13.4238 58.6076 13.5386 58.5175 13.6296C58.4273 13.7205 58.3182 13.7684 58.1948 13.7684C58.0715 13.7684 57.9528 13.7205 57.8627 13.6296C57.7725 13.5386 57.7251 13.419 57.7251 13.2802Z" fill="#21346A"/>
<path d="M61.7008 12.5432C61.8811 12.7394 62.0994 12.8926 62.3461 13.0122C62.5928 13.1319 62.849 13.1893 63.1147 13.1893C63.4564 13.1893 63.7173 13.1127 63.9071 12.9548C64.0969 12.8017 64.1871 12.5959 64.1871 12.3422C64.1871 12.213 64.1633 12.0982 64.1206 12.0072C64.0779 11.9163 64.0162 11.8349 63.9403 11.7727C63.8644 11.7057 63.7743 11.6483 63.6699 11.5957C63.5655 11.543 63.4516 11.4904 63.333 11.4282L62.5976 11.1027C62.4789 11.0501 62.3556 10.9879 62.2275 10.9113C62.1041 10.8395 61.9902 10.7486 61.8906 10.6433C61.791 10.538 61.7103 10.4136 61.6486 10.27C61.5869 10.1265 61.5537 9.95897 61.5537 9.76754C61.5537 9.57612 61.5964 9.38948 61.6771 9.22198C61.7577 9.05448 61.8716 8.90612 62.014 8.7817C62.1563 8.65727 62.3271 8.56156 62.5217 8.49456C62.7162 8.42756 62.9344 8.39406 63.1669 8.39406C63.4753 8.39406 63.76 8.45149 64.021 8.57113C64.282 8.69077 64.505 8.84391 64.6853 9.03055L64.3341 9.45648C64.1776 9.30333 64.002 9.18369 63.8122 9.09755C63.6224 9.01141 63.4042 8.96834 63.1669 8.96834C62.8775 8.96834 62.6498 9.03534 62.4742 9.16934C62.2986 9.30333 62.2132 9.48997 62.2132 9.72447C62.2132 9.8489 62.237 9.95897 62.2892 10.0451C62.3366 10.1313 62.403 10.2078 62.4884 10.2748C62.5738 10.3418 62.664 10.3993 62.7636 10.4471C62.8633 10.495 62.9629 10.5428 63.0673 10.5859L63.7932 10.9017C63.9403 10.964 64.0779 11.0357 64.206 11.1171C64.3342 11.1985 64.448 11.2942 64.5429 11.3995C64.6378 11.5095 64.7137 11.634 64.7659 11.7775C64.8229 11.9211 64.8466 12.0886 64.8466 12.28C64.8466 12.4858 64.8039 12.6772 64.7232 12.8543C64.6426 13.0314 64.5239 13.1893 64.3768 13.3233C64.225 13.4573 64.0447 13.5626 63.8265 13.6391C63.6129 13.7157 63.371 13.754 63.1005 13.754C62.7399 13.754 62.4078 13.687 62.0994 13.5482C61.791 13.4094 61.5252 13.2228 61.3022 12.9883L61.6913 12.5289L61.7008 12.5432Z" fill="#21346A"/>
<path d="M65.9995 9.83454H66.5309L66.5879 10.3897H66.6116C66.7776 10.2078 66.9579 10.0499 67.1572 9.92547C67.3518 9.80104 67.5653 9.73883 67.793 9.73883C68.0872 9.73883 68.315 9.80104 68.4763 9.93026C68.6423 10.0595 68.761 10.2413 68.8416 10.471C69.0409 10.2509 69.2402 10.0738 69.4395 9.93983C69.6387 9.80583 69.857 9.73883 70.0942 9.73883C70.4833 9.73883 70.7775 9.86326 70.9673 10.1169C71.1571 10.3705 71.252 10.7438 71.252 11.2367V13.6679H70.6114V11.3229C70.6114 10.9592 70.5545 10.696 70.4406 10.538C70.3267 10.3801 70.1464 10.2988 69.9092 10.2988C69.6198 10.2988 69.3019 10.495 68.9555 10.8922V13.6726H68.3149V11.3277C68.3149 10.964 68.258 10.7007 68.1441 10.5428C68.0303 10.3801 67.85 10.3035 67.6032 10.3035C67.3138 10.3035 66.9959 10.4998 66.6495 10.897V13.6774H66.009V9.83933L65.9995 9.83454Z" fill="#21346A"/>
<path d="M72.3389 12.6772C72.3389 12.2561 72.5239 11.9355 72.8987 11.7105C73.2736 11.4856 73.8667 11.3325 74.678 11.2415C74.678 11.1219 74.6638 11.0023 74.6448 10.8874C74.6211 10.7725 74.5784 10.6673 74.5215 10.5811C74.4598 10.4902 74.3839 10.4184 74.2842 10.3658C74.1846 10.3083 74.0565 10.2844 73.8999 10.2844C73.6769 10.2844 73.4681 10.3275 73.2783 10.4088C73.0885 10.495 72.9177 10.5859 72.7659 10.6912L72.5097 10.2413C72.6852 10.1265 72.9035 10.0116 73.1597 9.90633C73.4159 9.80105 73.6959 9.74362 74.0043 9.74362C74.4693 9.74362 74.8061 9.88719 75.0149 10.1743C75.2237 10.4615 75.3281 10.8443 75.3281 11.3229V13.6774H74.7966L74.7397 13.218H74.7255C74.5452 13.3712 74.3459 13.5004 74.1371 13.6104C73.9236 13.7157 73.7006 13.7732 73.4681 13.7732C73.1455 13.7732 72.875 13.6774 72.6662 13.4908C72.4527 13.2994 72.3484 13.0314 72.3484 12.6868L72.3389 12.6772ZM72.9747 12.6294C72.9747 12.8495 73.0363 13.0074 73.1645 13.1032C73.2926 13.1989 73.4491 13.2467 73.6389 13.2467C73.8287 13.2467 73.9948 13.2037 74.1609 13.1175C74.3269 13.0314 74.4977 12.9022 74.6828 12.7347V11.6675C74.3649 11.7105 74.0944 11.7584 73.8762 11.8158C73.6579 11.8732 73.4823 11.9402 73.3495 12.0216C73.2166 12.103 73.1218 12.1891 73.0648 12.2944C73.0079 12.3949 72.9794 12.5097 72.9794 12.6294H72.9747Z" fill="#21346A"/>
<path d="M76.7274 8.05428H77.3679V12.95C77.3679 13.0553 77.3869 13.1271 77.4201 13.1701C77.4581 13.2132 77.5008 13.2324 77.5435 13.2324H77.6004C77.6004 13.2324 77.6479 13.2276 77.6811 13.218L77.7665 13.7061C77.7238 13.7253 77.6764 13.7444 77.6194 13.754C77.5625 13.7636 77.4913 13.7684 77.4012 13.7684C77.1544 13.7684 76.9789 13.6966 76.8792 13.5482C76.7748 13.3999 76.7227 13.1845 76.7227 12.9022V8.05428H76.7274Z" fill="#21346A"/>
<path d="M78.9198 8.05428H79.5603V12.95C79.5603 13.0553 79.5793 13.1271 79.6125 13.1701C79.6505 13.2132 79.6932 13.2324 79.7359 13.2324H79.7928C79.7928 13.2324 79.8403 13.2276 79.8735 13.218L79.9589 13.7061C79.9162 13.7253 79.8687 13.7444 79.8118 13.754C79.7549 13.7636 79.6837 13.7684 79.5935 13.7684C79.3468 13.7684 79.1712 13.6966 79.0716 13.5482C78.9672 13.3999 78.915 13.1845 78.915 12.9022V8.05428H78.9198Z" fill="#21346A"/>
<path d="M82.9526 8.49455H84.4804C84.7414 8.49455 84.9786 8.51848 85.1969 8.56634C85.4152 8.61419 85.6002 8.68598 85.752 8.78648C85.9039 8.88698 86.0272 9.01619 86.1126 9.1789C86.1981 9.34162 86.2407 9.53304 86.2407 9.75797C86.2407 10.0164 86.1696 10.2509 86.0225 10.4567C85.8754 10.6625 85.6524 10.806 85.3487 10.8874V10.9209C85.7236 10.9783 86.0177 11.1123 86.2265 11.3133C86.4353 11.5191 86.5397 11.8014 86.5397 12.1604C86.5397 12.414 86.4922 12.6342 86.3973 12.8256C86.3024 13.017 86.1696 13.1749 85.9988 13.2994C85.828 13.4238 85.6192 13.5195 85.382 13.5817C85.14 13.6439 84.879 13.6774 84.5896 13.6774H82.9526V8.49934V8.49455ZM84.3618 10.7055C84.8031 10.7055 85.121 10.629 85.3108 10.4758C85.5006 10.3227 85.5955 10.1025 85.5955 9.81061C85.5955 9.51868 85.4958 9.32247 85.2918 9.19804C85.0925 9.07362 84.7889 9.0114 84.3856 9.0114H83.5932V10.7007H84.3523L84.3618 10.7055ZM84.4947 13.151C84.9359 13.151 85.2823 13.0696 85.529 12.9021C85.7758 12.7346 85.8991 12.4762 85.8991 12.1221C85.8991 11.8014 85.7805 11.5669 85.5385 11.4138C85.2965 11.2655 84.9502 11.1889 84.4994 11.1889H83.6074V13.1462H84.4994L84.4947 13.151Z" fill="#21346A"/>
<path d="M87.4745 9.83455H88.1245V12.1795C88.1245 12.5432 88.1814 12.8064 88.2906 12.9644C88.4044 13.1271 88.5847 13.2037 88.8362 13.2037C89.0355 13.2037 89.2111 13.151 89.3581 13.0505C89.51 12.95 89.676 12.7825 89.8611 12.5576V9.83455H90.5016V13.6727H89.9702L89.9133 13.0744H89.8895C89.714 13.285 89.5242 13.4525 89.3297 13.5817C89.1351 13.7062 88.9026 13.7732 88.6369 13.7732C88.2289 13.7732 87.9347 13.6487 87.7497 13.3951C87.5646 13.1414 87.4697 12.7682 87.4697 12.2752V9.84412L87.4745 9.83455Z" fill="#21346A"/>
<path d="M91.8826 12.8064C92.0487 12.9452 92.2195 13.0553 92.3951 13.1367C92.5706 13.2228 92.7699 13.2611 93.0024 13.2611C93.2539 13.2611 93.4389 13.2037 93.567 13.0888C93.6951 12.9739 93.7568 12.8304 93.7568 12.6629C93.7568 12.5624 93.7283 12.4762 93.6761 12.4045C93.624 12.3327 93.5575 12.2657 93.4769 12.213C93.3962 12.1604 93.3013 12.1077 93.1969 12.0647C93.0925 12.0216 92.9882 11.9785 92.8838 11.9402C92.7462 11.8924 92.6133 11.8397 92.4757 11.7775C92.3381 11.7153 92.2195 11.6435 92.1104 11.5574C92.0012 11.4712 91.9158 11.3707 91.8494 11.2511C91.783 11.1362 91.7498 10.9975 91.7498 10.8348C91.7498 10.6816 91.7782 10.538 91.8399 10.404C91.9016 10.27 91.987 10.1552 92.0961 10.0547C92.21 9.95898 92.3476 9.88241 92.5089 9.82498C92.6703 9.76755 92.8553 9.74362 93.0546 9.74362C93.2966 9.74362 93.5148 9.78669 93.7141 9.86805C93.9134 9.94941 94.0889 10.0547 94.236 10.1743L93.9324 10.5859C93.8043 10.4854 93.6667 10.404 93.5243 10.3418C93.382 10.2796 93.2301 10.2461 93.0641 10.2461C92.8221 10.2461 92.6465 10.3035 92.5374 10.4136C92.4235 10.5237 92.3713 10.6529 92.3713 10.8013C92.3713 10.8922 92.3951 10.9688 92.4425 11.0358C92.49 11.1027 92.5516 11.1602 92.6323 11.208C92.7082 11.2559 92.7984 11.3037 92.9028 11.342C93.0024 11.3803 93.1115 11.4234 93.2207 11.4665C93.3582 11.5191 93.4911 11.5765 93.6334 11.634C93.771 11.6914 93.8944 11.7632 94.0035 11.8493C94.1127 11.9355 94.2028 12.0407 94.274 12.17C94.3452 12.2992 94.3784 12.4475 94.3784 12.6294C94.3784 12.7873 94.3499 12.9357 94.2882 13.0697C94.2265 13.2084 94.1411 13.3281 94.0225 13.4334C93.9039 13.5387 93.7616 13.62 93.586 13.6822C93.4104 13.7444 93.2112 13.7732 92.9882 13.7732C92.7177 13.7732 92.4567 13.7253 92.2148 13.6248C91.968 13.5243 91.7545 13.3999 91.5742 13.2467L91.8969 12.8112L91.8826 12.8064Z" fill="#21346A"/>
<path d="M95.7873 9.0449C95.664 9.0449 95.5548 9.00662 95.4694 8.92526C95.384 8.84391 95.3413 8.74819 95.3413 8.62377C95.3413 8.49934 95.384 8.39405 95.4694 8.32227C95.5548 8.25048 95.6592 8.20741 95.7873 8.20741C95.9154 8.20741 96.0198 8.2457 96.1052 8.32227C96.1906 8.39884 96.2333 8.49934 96.2333 8.62377C96.2333 8.74819 96.1906 8.84391 96.1052 8.92526C96.0198 9.00183 95.9154 9.0449 95.7873 9.0449ZM95.4599 9.83454H96.1005V13.6726H95.4599V9.83454Z" fill="#21346A"/>
<path d="M97.5811 9.83454H98.1125L98.1694 10.3897H98.1931C98.3734 10.2078 98.568 10.0499 98.7672 9.92547C98.9665 9.80104 99.2038 9.73883 99.4695 9.73883C99.8728 9.73883 100.167 9.86326 100.352 10.1169C100.537 10.3705 100.632 10.7438 100.632 11.2367V13.6679H99.9914V11.3229C99.9914 10.9592 99.9345 10.696 99.8206 10.538C99.7067 10.3801 99.5217 10.2988 99.2749 10.2988C99.0756 10.2988 98.9001 10.3466 98.7483 10.4471C98.5964 10.5476 98.4256 10.696 98.2311 10.8874V13.6679H97.5905V9.82976L97.5811 9.83454Z" fill="#21346A"/>
<path d="M101.775 11.7632C101.775 11.4473 101.823 11.165 101.922 10.9161C102.022 10.6673 102.145 10.4519 102.307 10.2796C102.468 10.1073 102.648 9.97333 102.852 9.88241C103.056 9.79148 103.265 9.74362 103.488 9.74362C103.73 9.74362 103.944 9.78669 104.134 9.86805C104.323 9.94941 104.485 10.0738 104.613 10.2318C104.741 10.3897 104.841 10.5811 104.907 10.8013C104.973 11.0214 105.007 11.2702 105.007 11.543C105.007 11.6866 104.997 11.8015 104.983 11.8972H102.416C102.444 12.3135 102.568 12.6437 102.796 12.883C103.023 13.1271 103.317 13.2467 103.683 13.2467C103.863 13.2467 104.034 13.218 104.186 13.1654C104.338 13.1127 104.489 13.0362 104.627 12.95L104.855 13.3759C104.689 13.4812 104.504 13.5722 104.3 13.6535C104.096 13.7349 103.863 13.7732 103.602 13.7732C103.341 13.7732 103.109 13.7253 102.886 13.6344C102.663 13.5434 102.473 13.4094 102.307 13.2419C102.141 13.0697 102.013 12.8639 101.918 12.615C101.823 12.3662 101.775 12.0838 101.775 11.768V11.7632ZM104.437 11.4712C104.437 11.0788 104.357 10.7773 104.19 10.5668C104.024 10.361 103.797 10.2557 103.498 10.2557C103.36 10.2557 103.232 10.2844 103.109 10.337C102.985 10.3897 102.876 10.471 102.777 10.5763C102.677 10.6768 102.596 10.806 102.53 10.9544C102.463 11.1027 102.421 11.275 102.402 11.4712H104.437Z" fill="#21346A"/>
<path d="M106.036 12.8064C106.202 12.9452 106.373 13.0553 106.548 13.1367C106.724 13.2228 106.923 13.2611 107.156 13.2611C107.407 13.2611 107.592 13.2037 107.72 13.0888C107.848 12.9739 107.91 12.8304 107.91 12.6629C107.91 12.5624 107.882 12.4762 107.829 12.4045C107.777 12.3327 107.711 12.2657 107.63 12.213C107.55 12.1604 107.455 12.1077 107.35 12.0647C107.246 12.0216 107.141 11.9785 107.037 11.9402C106.899 11.8924 106.767 11.8397 106.629 11.7775C106.491 11.7153 106.373 11.6435 106.264 11.5574C106.155 11.4712 106.069 11.3707 106.003 11.2511C105.936 11.1362 105.903 10.9975 105.903 10.8348C105.903 10.6816 105.932 10.538 105.993 10.404C106.055 10.27 106.14 10.1552 106.249 10.0547C106.363 9.95898 106.501 9.88241 106.662 9.82498C106.824 9.76755 107.009 9.74362 107.208 9.74362C107.45 9.74362 107.668 9.78669 107.867 9.86805C108.067 9.94941 108.242 10.0547 108.389 10.1743L108.086 10.5859C107.958 10.4854 107.82 10.404 107.678 10.3418C107.535 10.2796 107.383 10.2461 107.217 10.2461C106.975 10.2461 106.8 10.3035 106.691 10.4136C106.577 10.5237 106.525 10.6529 106.525 10.8013C106.525 10.8922 106.548 10.9688 106.596 11.0358C106.643 11.1027 106.705 11.1602 106.786 11.208C106.862 11.2559 106.952 11.3037 107.056 11.342C107.156 11.3803 107.265 11.4234 107.374 11.4665C107.512 11.5191 107.644 11.5765 107.787 11.634C107.924 11.6914 108.048 11.7632 108.157 11.8493C108.266 11.9355 108.356 12.0407 108.427 12.17C108.498 12.2992 108.532 12.4475 108.532 12.6294C108.532 12.7873 108.503 12.9357 108.442 13.0697C108.38 13.2084 108.294 13.3281 108.176 13.4334C108.057 13.5387 107.915 13.62 107.739 13.6822C107.564 13.7444 107.364 13.7732 107.141 13.7732C106.871 13.7732 106.61 13.7253 106.368 13.6248C106.121 13.5243 105.908 13.3999 105.728 13.2467L106.05 12.8112L106.036 12.8064Z" fill="#21346A"/>
<path d="M109.509 12.8064C109.675 12.9452 109.846 13.0553 110.022 13.1367C110.197 13.2228 110.396 13.2611 110.629 13.2611C110.88 13.2611 111.065 13.2037 111.193 13.0888C111.322 12.9739 111.383 12.8304 111.383 12.6629C111.383 12.5624 111.355 12.4762 111.303 12.4045C111.25 12.3327 111.184 12.2657 111.103 12.213C111.023 12.1604 110.928 12.1077 110.823 12.0647C110.719 12.0216 110.615 11.9785 110.51 11.9402C110.373 11.8924 110.24 11.8397 110.102 11.7775C109.965 11.7153 109.846 11.6435 109.737 11.5574C109.628 11.4712 109.542 11.3707 109.476 11.2511C109.409 11.1362 109.376 10.9975 109.376 10.8348C109.376 10.6816 109.405 10.538 109.466 10.404C109.528 10.27 109.613 10.1552 109.723 10.0547C109.836 9.95898 109.974 9.88241 110.135 9.82498C110.297 9.76755 110.482 9.74362 110.681 9.74362C110.923 9.74362 111.141 9.78669 111.341 9.86805C111.54 9.94941 111.715 10.0547 111.862 10.1743L111.559 10.5859C111.431 10.4854 111.293 10.404 111.151 10.3418C111.008 10.2796 110.857 10.2461 110.691 10.2461C110.449 10.2461 110.273 10.3035 110.164 10.4136C110.05 10.5237 109.998 10.6529 109.998 10.8013C109.998 10.8922 110.022 10.9688 110.069 11.0358C110.116 11.1027 110.178 11.1602 110.259 11.208C110.335 11.2559 110.425 11.3037 110.529 11.342C110.629 11.3803 110.738 11.4234 110.847 11.4665C110.985 11.5191 111.118 11.5765 111.26 11.634C111.398 11.6914 111.521 11.7632 111.63 11.8493C111.739 11.9355 111.829 12.0407 111.9 12.17C111.972 12.2944 112.005 12.4475 112.005 12.6294C112.005 12.7873 111.976 12.9357 111.915 13.0697C111.853 13.2084 111.768 13.3281 111.649 13.4334C111.53 13.5387 111.388 13.62 111.212 13.6822C111.037 13.7444 110.838 13.7732 110.615 13.7732C110.344 13.7732 110.083 13.7253 109.841 13.6248C109.595 13.5243 109.381 13.3999 109.201 13.2467L109.523 12.8112L109.509 12.8064Z" fill="#21346A"/>
<path d="M50.0384 20.9756H48.1689L47.6755 22.5548H47.0112L48.7478 17.3768H49.4832L51.2198 22.5548H50.5224L50.0384 20.9756ZM49.8723 20.4491L49.6303 19.6595C49.5354 19.3676 49.45 19.0805 49.3646 18.7933C49.2792 18.5062 49.1986 18.2142 49.1132 17.9127H49.0799C49.004 18.2142 48.9186 18.5062 48.838 18.7933C48.7526 19.0805 48.6672 19.3676 48.5723 19.6595L48.3303 20.4491H49.8723Z" fill="#21346A"/>
<path d="M51.8083 20.6454C51.8083 20.3343 51.8558 20.0567 51.9459 19.8031C52.0361 19.5494 52.1594 19.3389 52.3113 19.1666C52.4631 18.9943 52.6387 18.8603 52.8332 18.7646C53.0277 18.6689 53.2412 18.621 53.4595 18.621C53.6778 18.621 53.8675 18.6593 54.0289 18.7407C54.1902 18.822 54.3563 18.9273 54.5223 19.0661L54.4891 18.4104V16.9365H55.1391V22.5596H54.6077L54.5508 22.1098H54.5271C54.3752 22.2581 54.2044 22.3873 54.0051 22.4926C53.8106 22.5979 53.5971 22.6553 53.3741 22.6553C52.8949 22.6553 52.5105 22.483 52.2259 22.1337C51.9412 21.7843 51.7988 21.2914 51.7988 20.6501L51.8083 20.6454ZM52.4726 20.6358C52.4726 21.1 52.5627 21.4589 52.7478 21.7173C52.9281 21.9758 53.189 22.105 53.5212 22.105C53.6967 22.105 53.8675 22.0619 54.0241 21.9758C54.1807 21.8896 54.3373 21.7556 54.4939 21.5786V19.5734C54.3325 19.425 54.176 19.3197 54.0289 19.2623C53.8818 19.2001 53.7252 19.1714 53.5686 19.1714C53.412 19.1714 53.2744 19.2049 53.1416 19.2767C53.0087 19.3484 52.8901 19.4489 52.7952 19.5781C52.6956 19.7074 52.6197 19.8605 52.5627 20.0424C52.5058 20.2194 52.4773 20.4204 52.4773 20.6406L52.4726 20.6358Z" fill="#21346A"/>
<path d="M56.4629 18.7167H56.9943L57.0512 19.2719H57.075C57.241 19.09 57.4213 18.9321 57.6206 18.8077C57.8151 18.6832 58.0287 18.621 58.2564 18.621C58.5506 18.621 58.7783 18.6832 58.9397 18.8124C59.1057 18.9417 59.2243 19.1235 59.305 19.3532C59.5043 19.1331 59.7036 18.956 59.9028 18.822C60.1021 18.688 60.3204 18.621 60.5576 18.621C60.9467 18.621 61.2409 18.7454 61.4307 18.9991C61.6204 19.2527 61.7153 19.626 61.7153 20.1189V22.55H61.0748V20.2051C61.0748 19.8414 61.0179 19.5782 60.904 19.4202C60.7901 19.2623 60.6098 19.1809 60.3726 19.1809C60.0831 19.1809 59.7652 19.3772 59.4189 19.7744V22.5548H58.7783V20.2099C58.7783 19.8461 58.7214 19.5829 58.6075 19.425C58.4936 19.2623 58.3133 19.1857 58.0666 19.1857C57.7772 19.1857 57.4593 19.3819 57.1129 19.7791V22.5596H56.4724V18.7215L56.4629 18.7167Z" fill="#21346A"/>
<path d="M63.4802 17.9271C63.3568 17.9271 63.2477 17.8888 63.1623 17.8074C63.0769 17.7261 63.0342 17.6304 63.0342 17.506C63.0342 17.3815 63.0769 17.2762 63.1623 17.2045C63.2477 17.1327 63.3521 17.0896 63.4802 17.0896C63.6083 17.0896 63.7127 17.1279 63.7981 17.2045C63.8835 17.281 63.9262 17.3815 63.9262 17.506C63.9262 17.6304 63.8835 17.7261 63.7981 17.8074C63.7127 17.884 63.6083 17.9271 63.4802 17.9271ZM63.148 18.7167H63.7886V22.5548H63.148V18.7167Z" fill="#21346A"/>
<path d="M65.269 18.7167H65.8005L65.8574 19.2719H65.8811C66.0614 19.09 66.256 18.9321 66.4552 18.8077C66.6545 18.6832 66.8917 18.621 67.1575 18.621C67.5608 18.621 67.8549 18.7454 68.04 18.9991C68.225 19.2527 68.3199 19.626 68.3199 20.1189V22.55H67.6794V20.2051C67.6794 19.8414 67.6224 19.5782 67.5086 19.4202C67.3947 19.2623 67.2097 19.1809 66.9629 19.1809C66.7636 19.1809 66.5881 19.2288 66.4363 19.3293C66.2844 19.4298 66.1136 19.5782 65.9191 19.7696V22.55H65.2785V18.7119L65.269 18.7167Z" fill="#21346A"/>
<path d="M70.0754 17.9271C69.952 17.9271 69.8429 17.8888 69.7575 17.8074C69.6721 17.7261 69.6294 17.6304 69.6294 17.506C69.6294 17.3815 69.6721 17.2762 69.7575 17.2045C69.8429 17.1327 69.9473 17.0896 70.0754 17.0896C70.2035 17.0896 70.3079 17.1279 70.3933 17.2045C70.4787 17.281 70.5214 17.3815 70.5214 17.506C70.5214 17.6304 70.4787 17.7261 70.3933 17.8074C70.3079 17.884 70.2035 17.9271 70.0754 17.9271ZM69.748 18.7167H70.3886V22.5548H69.748V18.7167Z" fill="#21346A"/>
<path d="M71.7693 21.6886C71.9354 21.8274 72.1062 21.9375 72.2818 22.0188C72.4573 22.105 72.6566 22.1433 72.8891 22.1433C73.1406 22.1433 73.3256 22.0858 73.4537 21.971C73.5818 21.8561 73.6435 21.7126 73.6435 21.5451C73.6435 21.4446 73.6151 21.3584 73.5629 21.2866C73.5107 21.2149 73.4442 21.1479 73.3636 21.0952C73.2829 21.0426 73.188 20.9899 73.0836 20.9469C72.9793 20.9038 72.8749 20.8607 72.7705 20.8224C72.6329 20.7746 72.5 20.7219 72.3624 20.6597C72.2248 20.5975 72.1062 20.5257 71.9971 20.4396C71.888 20.3534 71.8026 20.2529 71.7361 20.1333C71.6697 20.0184 71.6365 19.8797 71.6365 19.7169C71.6365 19.5638 71.665 19.4202 71.7266 19.2862C71.7883 19.1522 71.8737 19.0374 71.9829 18.9369C72.0967 18.8412 72.2343 18.7646 72.3957 18.7072C72.557 18.6497 72.742 18.6258 72.9413 18.6258C73.1833 18.6258 73.4015 18.6689 73.6008 18.7502C73.8001 18.8316 73.9757 18.9369 74.1227 19.0565L73.8191 19.4681C73.691 19.3676 73.5534 19.2862 73.411 19.224C73.2687 19.1618 73.1169 19.1283 72.9508 19.1283C72.7088 19.1283 72.5333 19.1857 72.4241 19.2958C72.3102 19.4059 72.2581 19.5351 72.2581 19.6834C72.2581 19.7744 72.2818 19.8509 72.3292 19.9179C72.3767 19.9849 72.4384 20.0424 72.519 20.0902C72.5949 20.1381 72.6851 20.1859 72.7895 20.2242C72.8891 20.2625 72.9982 20.3056 73.1074 20.3486C73.245 20.4013 73.3778 20.4587 73.5202 20.5161C73.6578 20.5736 73.7811 20.6454 73.8903 20.7315C73.9994 20.8176 74.0895 20.9229 74.1607 21.0521C74.2319 21.1814 74.2651 21.3297 74.2651 21.5116C74.2651 21.6695 74.2366 21.8178 74.1749 21.9518C74.1133 22.0906 74.0279 22.2103 73.9092 22.3156C73.7906 22.4208 73.6483 22.5022 73.4727 22.5644C73.2972 22.6266 73.0979 22.6553 72.8749 22.6553C72.6044 22.6553 72.3435 22.6075 72.1015 22.507C71.8548 22.4065 71.6412 22.2821 71.4609 22.1289L71.7836 21.6934L71.7693 21.6886Z" fill="#21346A"/>
<path d="M75.4513 19.2479H74.8867V18.7598L75.4798 18.7215L75.5605 17.6495H76.1014V18.7215H77.1262V19.2527H76.1014V21.3824C76.1014 21.6169 76.1441 21.8035 76.2295 21.9327C76.3149 22.0619 76.4667 22.1241 76.6897 22.1241C76.7562 22.1241 76.8321 22.1146 76.908 22.0906C76.9886 22.0715 77.0551 22.0476 77.1215 22.0188L77.2449 22.507C77.1405 22.5453 77.0266 22.5788 76.9032 22.6075C76.7799 22.6362 76.6613 22.6506 76.5379 22.6506C76.3339 22.6506 76.1631 22.6171 76.0255 22.5548C75.8879 22.4926 75.774 22.4065 75.6886 22.2964C75.6032 22.1863 75.5415 22.0523 75.5035 21.8944C75.4656 21.7365 75.4466 21.5642 75.4466 21.3728V19.2479H75.4513Z" fill="#21346A"/>
<path d="M78.1841 18.7167H78.7155L78.7724 19.4107H78.7962C78.9243 19.1666 79.0856 18.9752 79.2706 18.8364C79.4557 18.6928 79.6597 18.621 79.878 18.621C80.0298 18.621 80.1626 18.6497 80.286 18.7024L80.1626 19.2719C80.101 19.2527 80.044 19.2336 79.9918 19.224C79.9396 19.2144 79.8732 19.2097 79.7973 19.2097C79.636 19.2097 79.4652 19.2767 79.2944 19.4059C79.1188 19.5351 78.967 19.7648 78.8389 20.095V22.5596H78.1983V18.7215L78.1841 18.7167Z" fill="#21346A"/>
<path d="M80.7134 21.5594C80.7134 21.1383 80.8984 20.8176 81.2733 20.5927C81.6481 20.3678 82.2412 20.2146 83.0525 20.1237C83.0525 20.0041 83.0383 19.8844 83.0193 19.7696C82.9956 19.6547 82.9529 19.5494 82.896 19.4633C82.8343 19.3724 82.7584 19.3006 82.6587 19.2479C82.5591 19.1905 82.431 19.1666 82.2744 19.1666C82.0514 19.1666 81.8426 19.2097 81.6528 19.291C81.463 19.3772 81.2922 19.4681 81.1404 19.5734L80.8842 19.1235C81.0597 19.0087 81.278 18.8938 81.5342 18.7885C81.7904 18.6832 82.0704 18.6258 82.3788 18.6258C82.8438 18.6258 83.1807 18.7694 83.3894 19.0565C83.5982 19.3437 83.7026 19.7265 83.7026 20.2051V22.5596H83.1712L83.1142 22.1002H83.1C82.9197 22.2533 82.7204 22.3826 82.5116 22.4926C82.2981 22.5979 82.0751 22.6553 81.8426 22.6553C81.52 22.6553 81.2495 22.5596 81.0408 22.373C80.8273 22.1816 80.7229 21.9136 80.7229 21.569L80.7134 21.5594ZM81.3492 21.5116C81.3492 21.7317 81.4109 21.8896 81.539 21.9853C81.6671 22.0811 81.8237 22.1289 82.0134 22.1289C82.2032 22.1289 82.3693 22.0858 82.5354 21.9997C82.7014 21.9136 82.8722 21.7843 83.0573 21.6168V20.5496C82.7394 20.5927 82.4689 20.6406 82.2507 20.698C82.0324 20.7554 81.8569 20.8224 81.724 20.9038C81.5912 20.9851 81.4963 21.0713 81.4393 21.1766C81.3824 21.2771 81.3539 21.3919 81.3539 21.5116H81.3492Z" fill="#21346A"/>
<path d="M85.216 19.2479H84.6514V18.7598L85.2445 18.7215L85.3251 17.6495H85.866V18.7215H86.8909V19.2527H85.866V21.3824C85.866 21.6169 85.9087 21.8035 85.9941 21.9327C86.0795 22.0619 86.2314 22.1241 86.4544 22.1241C86.5208 22.1241 86.5967 22.1146 86.6726 22.0906C86.7533 22.0715 86.8197 22.0476 86.8861 22.0188L87.0095 22.507C86.9051 22.5453 86.7913 22.5788 86.6679 22.6075C86.5445 22.6362 86.4259 22.6506 86.3025 22.6506C86.0985 22.6506 85.9277 22.6171 85.7901 22.5548C85.6525 22.4926 85.5386 22.4065 85.4532 22.2964C85.3678 22.1863 85.3061 22.0523 85.2682 21.8944C85.2302 21.7365 85.2112 21.5642 85.2112 21.3728V19.2479H85.216Z" fill="#21346A"/>
<path d="M88.2766 17.9271C88.1532 17.9271 88.0441 17.8888 87.9587 17.8074C87.8733 17.7261 87.8306 17.6304 87.8306 17.506C87.8306 17.3815 87.8733 17.2762 87.9587 17.2045C88.0441 17.1327 88.1485 17.0896 88.2766 17.0896C88.4047 17.0896 88.5091 17.1279 88.5945 17.2045C88.6799 17.281 88.7226 17.3815 88.7226 17.506C88.7226 17.6304 88.6799 17.7261 88.5945 17.8074C88.5091 17.884 88.4047 17.9271 88.2766 17.9271ZM87.9444 18.7167H88.585V22.5548H87.9444V18.7167Z" fill="#21346A"/>
<path d="M89.7852 20.6454C89.7852 20.3247 89.8326 20.0376 89.9322 19.7887C90.0319 19.5399 90.16 19.3293 90.3213 19.1522C90.4826 18.9799 90.6677 18.846 90.8812 18.7598C91.0947 18.6689 91.3177 18.6258 91.5502 18.6258C91.7827 18.6258 92.0104 18.6689 92.2192 18.7598C92.4327 18.8507 92.6178 18.9799 92.7791 19.1522C92.9404 19.3245 93.0685 19.5399 93.1682 19.7887C93.2631 20.0376 93.3153 20.3247 93.3153 20.6454C93.3153 20.966 93.2678 21.2436 93.1682 21.4924C93.0733 21.7413 92.9404 21.9518 92.7791 22.1241C92.6178 22.2964 92.4327 22.4256 92.2192 22.5166C92.0057 22.6075 91.7827 22.6506 91.5502 22.6506C91.3177 22.6506 91.0947 22.6075 90.8812 22.5166C90.6677 22.4256 90.4826 22.2964 90.3213 22.1241C90.16 21.9518 90.0319 21.7413 89.9322 21.4924C89.8373 21.2436 89.7852 20.9612 89.7852 20.6454ZM90.4494 20.6454C90.4494 20.8655 90.4779 21.0665 90.5301 21.2436C90.5823 21.4206 90.6582 21.5786 90.7531 21.7078C90.848 21.837 90.9666 21.9375 91.0995 22.0093C91.2371 22.0811 91.3841 22.1146 91.5455 22.1146C91.7068 22.1146 91.8539 22.0811 91.9915 22.0093C92.1291 21.9375 92.2429 21.837 92.3378 21.7078C92.4327 21.5786 92.5086 21.4254 92.5608 21.2436C92.613 21.0665 92.6368 20.8655 92.6368 20.6454C92.6368 20.4252 92.613 20.2242 92.5608 20.0424C92.5086 19.8605 92.4327 19.7026 92.3378 19.5734C92.2429 19.4442 92.1243 19.3389 91.9915 19.2671C91.8586 19.1953 91.7068 19.1618 91.5455 19.1618C91.3841 19.1618 91.2371 19.1953 91.0995 19.2671C90.9619 19.3389 90.848 19.4394 90.7531 19.5734C90.6582 19.7026 90.5823 19.8605 90.5301 20.0424C90.4779 20.2242 90.4494 20.4252 90.4494 20.6454Z" fill="#21346A"/>
<path d="M94.3496 18.7167H94.881L94.938 19.2719H94.9617C95.142 19.09 95.3365 18.9321 95.5358 18.8077C95.7351 18.6832 95.9723 18.621 96.238 18.621C96.6413 18.621 96.9355 18.7454 97.1205 18.9991C97.3056 19.2527 97.4005 19.626 97.4005 20.1189V22.55H96.7599V20.2051C96.7599 19.8414 96.703 19.5782 96.5891 19.4202C96.4753 19.2623 96.2902 19.1809 96.0435 19.1809C95.8442 19.1809 95.6686 19.2288 95.5168 19.3293C95.365 19.4298 95.1942 19.5782 94.9996 19.7696V22.55H94.3591V18.7119L94.3496 18.7167Z" fill="#21346A"/>
</g>
<defs>
<clipPath id="clip0_40_274">
<rect width="112" height="47" fill="white"/>
</clipPath>
</defs>
</svg>
