<svg width="255" height="86" viewBox="0 0 255 86" fill="none" xmlns="http://www.w3.org/2000/svg">
<g clip-path="url(#clip0_41_101)">
<path d="M121.89 40.6402H111.842V50.6531H121.89V40.6402Z" fill="#7CC242"/>
<path d="M49.8442 63.9459V22.0541H62.2854C67.3443 22.0541 72.4529 23.3007 76.2061 25.7347C81.8856 29.4697 85.3508 36.1532 85.3508 43.2276C85.3508 48.4368 83.36 53.473 79.2742 57.6631C75.1834 61.9077 69.216 63.9459 62.1166 63.9459H49.8442ZM61.7741 60.1515C68.7642 60.1515 73.421 58.3409 76.4891 55.1105C79.6714 51.7118 81.1458 47.3534 81.1458 42.9951C81.1458 37.5582 78.8721 32.8041 74.4437 29.4104C71.4897 27.1446 67.0018 25.8435 61.6053 25.8435H54.0492V60.1515H61.7741Z" fill="#59585B"/>
<path d="M97.9012 63.9459V25.8485H88.2451V22.0541H111.708V25.8485H102.106V63.9459H97.9012Z" fill="#59585B"/>
<path d="M131.72 63.9459V25.8485H122.064V22.0541H145.527V25.8485H135.925V63.9459H131.72Z" fill="#59585B"/>
<path d="M172.509 63.9459L158.25 44.9788H162.341C169.783 44.9788 174.216 41.1844 174.216 35.4656C174.216 31.503 171.774 25.8435 162.113 25.8435H154.105V63.941H149.9V22.0541H162.569C173.536 22.0541 178.421 28.51 178.421 35.5843C178.421 42.6587 173.308 47.7541 165.921 48.3231L177.796 63.9459H172.514H172.509Z" fill="#59585B"/>
<path d="M217.22 63.9459L211.138 49.8517H191.597L185.461 63.9459H181.087L199.039 22.0541H203.756L221.822 63.9459H217.22ZM201.422 26.8082L193.186 46.0573H209.49L201.422 26.8082Z" fill="#59585B"/>
<path d="M249.712 63.9459L235.678 45.7753L230.222 52.4539V63.9459H226.017V22.0541H230.222V46.1167H230.336L249.593 22.0541H254.99L238.344 42.4905L254.99 63.9459H249.708H249.712Z" fill="#59585B"/>
<path d="M88.6028 82.5076C87.6347 84.2342 85.907 85.278 84.0255 85.278C81.1957 85.278 78.8325 83.0469 78.8325 80.1677C78.8325 77.2885 81.1559 75.0474 84.0106 75.0474C85.8475 75.0474 87.7687 76.1012 88.5581 77.7485H87.446C86.6815 76.6107 85.3411 75.9429 83.9957 75.9429C81.7815 75.9429 79.8205 77.897 79.8205 80.1825C79.8205 82.4681 81.7815 84.3826 84.0056 84.3826C85.3609 84.3826 86.5822 83.6999 87.4808 82.5126H88.5929L88.6028 82.5076Z" fill="#59585B"/>
<path d="M98.5566 85.2777C95.846 85.2777 93.3091 83.0862 93.3091 80.2119C93.3091 77.3377 95.6424 75.0373 98.5566 75.0373C101.471 75.0373 103.814 77.3377 103.814 80.1575C103.814 82.9773 101.441 85.2777 98.5566 85.2777ZM98.5467 75.9327C96.1985 75.9327 94.307 77.9115 94.307 80.2119C94.307 82.5123 96.2531 84.3823 98.5616 84.3823C100.87 84.3823 102.826 82.443 102.826 80.1723C102.826 77.9016 100.935 75.9327 98.5467 75.9327Z" fill="#59585B"/>
<path d="M116.901 85.1046L111.013 76.4027H110.988V85.1046H109.995V75.2104H111.336L116.876 83.4176H116.901V75.2104H117.894V85.1046H116.901Z" fill="#59585B"/>
<path d="M128.612 77.7235C128.612 76.7094 127.778 75.9327 126.855 75.9327C125.837 75.9327 125.057 76.6945 125.057 77.6592C125.057 78.5002 125.569 79.0246 126.974 79.3857C129.118 79.9349 129.843 81.043 129.843 82.3787C129.843 83.9964 128.513 85.2827 126.85 85.2827C125.092 85.2827 123.816 84.1053 123.792 82.3392H124.784C124.854 83.6106 125.658 84.3823 126.85 84.3823C127.977 84.3823 128.85 83.5017 128.85 82.4183C128.85 81.3349 128.14 80.7462 126.84 80.3752C125.42 79.9745 124.065 79.5045 124.065 77.6988C124.065 76.1355 125.326 75.0373 126.855 75.0373C128.384 75.0373 129.605 76.1998 129.605 77.7235H128.612Z" fill="#59585B"/>
<path d="M142.056 75.2104H143.049V81.4833C143.049 83.9816 141.585 85.2827 139.668 85.2827C137.752 85.2827 136.288 84.0261 136.288 81.4586V75.2154H137.281V81.513C137.281 83.5067 138.353 84.3872 139.668 84.3872C140.81 84.3872 142.056 83.6798 142.056 81.5278V75.2154V75.2104Z" fill="#59585B"/>
<path d="M150.268 85.1046V75.2104H151.26V84.2092H155.366V85.1046H150.268Z" fill="#59585B"/>
<path d="M161.19 85.1046V76.1058H158.911V75.2104H164.452V76.1058H162.183V85.1046H161.19Z" fill="#59585B"/>
<path d="M170.657 85.1046V75.2104H171.65V85.1046H170.657Z" fill="#59585B"/>
<path d="M185.685 85.1046L179.797 76.4027H179.767V85.1046H178.774V75.2104H180.115L185.655 83.4176H185.68V75.2104H186.673V85.1046H185.68H185.685Z" fill="#59585B"/>
<path d="M196.15 81.4536V80.5582H202.887C202.674 83.2197 200.405 85.2777 197.639 85.2777C194.874 85.2777 192.312 83.1109 192.312 80.1575C192.312 77.2041 194.715 75.0373 197.625 75.0373C199.854 75.0373 201.745 76.4571 202.321 77.8472H201.169C200.484 76.6846 199.064 75.9327 197.639 75.9327C195.306 75.9327 193.305 77.8027 193.305 80.1723C193.305 82.542 195.316 84.3823 197.679 84.3823C199.476 84.3823 201.234 83.1653 201.691 81.4536H196.15Z" fill="#59585B"/>
<path d="M205.702 86L206.884 83.4176H207.877L206.695 86H205.702Z" fill="#59585B"/>
<path d="M219.066 85.1046V75.2104H220.059V85.1046H219.066Z" fill="#59585B"/>
<path d="M234.089 85.1046L228.201 76.4027H228.172V85.1046H227.179V75.2104H228.519L234.06 83.4176H234.084V75.2104H235.077V85.1046H234.084H234.089Z" fill="#59585B"/>
<path d="M251.038 82.5074C250.07 84.2339 248.343 85.2777 246.461 85.2777C243.631 85.2777 241.268 83.0466 241.268 80.1674C241.268 77.2882 243.591 75.0472 246.446 75.0472C248.283 75.0472 250.204 76.1009 250.994 77.7483H249.882C249.117 76.6104 247.777 75.9426 246.431 75.9426C244.217 75.9426 242.261 77.8967 242.261 80.1822C242.261 82.4678 244.217 84.3823 246.446 84.3823C247.801 84.3823 249.023 83.6996 249.921 82.5123H251.033L251.038 82.5074Z" fill="#59585B"/>
<path d="M252.97 85.1046V83.4176H253.963V85.1046H252.97Z" fill="#59585B"/>
<path d="M25.6467 21.2279C26.0488 22.5389 26.436 26.6845 23.6211 29.3708C20.8062 32.0571 10.3757 41.8671 7.85862 46.1315C5.33662 50.3959 2.43731 54.3486 2.58625 62.1897C2.7054 68.5368 7.01961 73.6669 11.1998 76.3186C14.2877 78.2776 19.0388 80.6868 25.7608 82.1017C31.4105 83.289 43.4297 83.5611 52.217 83.0961C61.0093 82.631 68.5058 81.3448 68.5058 81.3448C68.5058 81.3448 60.1852 84.318 46.1801 84.8473C32.1751 85.3816 22.6828 84.4961 13.9501 81.0529C5.22244 77.5999 0.719573 69.9764 0.143683 64.1141C-0.695329 55.6002 2.31816 47.2693 4.86995 42.2134C8.2111 35.5942 9.92884 32.0472 17.3707 22.8357C20.3793 19.1106 23.1495 15.9345 24.3261 18.1607C25.5523 20.4858 25.6467 21.2279 25.6467 21.2279Z" fill="#7CC242"/>
<path d="M4.8157 53.3542C4.8157 53.3542 3.32137 56.2037 3.62917 57.6087C3.93697 59.0137 8.29586 66.0732 16.2193 70.5503C24.1428 75.0224 31.2371 77.2734 38.113 78.5695C53.4784 81.4635 65.6118 80.7709 65.6118 80.7709C65.6118 80.7709 45.2769 79.5243 32.5527 75.2648C23.6364 72.2818 20.8761 70.5255 17.5846 68.423C15.5392 67.117 12.4661 65.1679 8.91147 61.0272C6.16607 57.8313 4.59726 52.5033 4.82067 53.3542H4.8157Z" fill="#00AF6B"/>
<path d="M2.01034 47.3188C2.01034 47.3188 2.22381 40.2296 5.8827 32.5913C8.49406 27.1397 13.7764 20.3721 14.8586 18.9572C18.2594 14.5246 25.4679 7.05947 27.1608 7.83616C28.4268 8.41992 29.375 9.76058 29.5885 13.6094C29.802 17.4582 27.0715 20.0901 26.5204 20.2088C25.5176 20.4215 25.2743 15.4794 22.9211 16.1374C21.2431 16.6073 17.5693 20.2286 12.3019 27.6937C9.8891 31.1171 7.68483 34.2536 6.36923 37.0685C5.83305 38.2211 2.00537 47.3188 2.00537 47.3188H2.01034Z" fill="#00AF6B"/>
<path d="M64.4598 79.7716C64.4598 79.7716 57.8272 79.2225 51.969 77.5108C44.8697 75.438 34.598 71.0747 28.2979 67.7106C23.1249 64.9502 17.1674 60.2059 12.7539 55.4122C9.49216 51.875 8.39499 49.0602 7.71484 48.2142L9.17939 46.0078C9.17939 46.0078 11.0163 50.386 15.9709 55.432C18.7263 58.237 19.8582 59.1126 22.4646 61.0717C31.7235 68.0174 43.5044 73.0189 46.7363 74.1369C49.4668 75.0768 56.8045 77.7681 59.0187 78.3568C61.2329 78.9455 64.4598 79.7716 64.4598 79.7716Z" fill="#00ACE6"/>
<path d="M5.01416 32.6359C5.01416 32.6359 5.97729 29.3362 7.32765 26.0711C9.0851 21.8265 12.3021 15.519 17.2617 10.0673C19.7986 7.27714 25.498 1.92441 28.1292 0.870679C30.4427 -0.0593711 32.781 -0.964686 33.3469 2.25091C33.9377 5.60009 33.7193 9.48354 32.5725 10.9479C31.1874 12.7189 30.671 12.8772 30.2491 10.9132C29.8271 8.94926 28.6405 6.6835 27.0122 6.73791C23.7455 6.8517 18.3093 13.1642 14.0745 18.6257C9.87944 24.0329 10.078 24.0279 8.539 26.4223C7.8241 27.5354 5.23757 32.2896 5.01416 32.6408V32.6359Z" fill="#00ACE6"/>
</g>
<defs>
<clipPath id="clip0_41_101">
<rect width="255" height="86" fill="white"/>
</clipPath>
</defs>
</svg>
