<svg width="109" height="37" viewBox="0 0 109 37" fill="none" xmlns="http://www.w3.org/2000/svg">
<g clip-path="url(#clip0_40_327)">
<path d="M0 0V37H37.0325V0H0ZM8.98045 29.1339C9.67639 29.1339 10.2627 29.0816 10.6869 28.9722V25.8952H8.44658V24.1594H12.6889V30.3419C11.9406 30.5987 10.7918 30.8983 8.96139 30.8983C5.20046 30.8983 2.68365 28.4729 2.68365 24.7015C2.68365 20.9302 5.353 18.6046 8.97569 18.6046C10.6965 18.6046 11.4639 18.8567 12.5459 19.2324L12.3839 21.2821C11.3829 20.6306 10.5344 20.369 9.05672 20.369C6.4684 20.369 4.73809 22.238 4.75239 24.7491C4.76669 27.4504 6.64477 29.1292 8.97569 29.1292L8.98045 29.1339ZM18.8952 23.3509C20.6255 24.2117 22.3939 24.9156 22.3939 27.2982C22.3939 29.8949 20.349 30.9792 17.9943 30.9031C17.1553 30.8746 16.3402 30.6653 15.4536 30.3752L15.6538 28.5062C16.407 28.8153 17.3794 29.1482 18.1945 29.1387C19.2574 29.1197 20.3252 28.6298 20.3252 27.3981C20.3252 26.4517 19.5625 25.9856 18.8284 25.6147C17.203 24.7919 15.3297 24.2212 15.3297 21.9194C15.3297 19.746 17.0648 18.6141 19.2098 18.6141C19.9915 18.6141 20.921 18.7473 21.8601 19.0802L21.5788 20.9207C20.5588 20.5212 20.1154 20.3833 19.2765 20.3833C18.3518 20.3833 17.3984 20.7067 17.3984 21.772C17.3984 22.6042 18.2564 23.037 18.8952 23.3557V23.3509ZM27.5992 26.095L26.5505 28.4824L29.0673 27.1698L30.5164 28.2826L25.5638 30.6986H23.5236L26.1835 24.7729L27.5992 26.0997V26.095ZM26.2121 24.692L29.0673 18.3478L31.9226 24.692H29.9348L29.0673 22.5852L28.1998 24.692H26.2121ZM32.5279 30.6938L30.5402 26.095L31.9559 24.7681L34.6157 30.6938H32.5279Z" fill="#005087"/>
<path d="M39.9114 1.51234C40.1593 1.49331 40.3261 1.32686 40.3261 1.09383C40.3261 0.960664 40.226 0.817991 40.0973 0.760921C39.9972 0.722875 39.9257 0.713364 39.7017 0.713364H39.2012V2.15912H39.4347V1.54563H39.573C39.7541 1.54563 39.8208 1.60745 40.0067 1.93084L40.1354 2.15912H40.4214L40.2451 1.87853C40.0973 1.6455 40.0163 1.55514 39.9066 1.51234H39.9114ZM39.7255 1.34588H39.4395V0.913107H39.7064C39.9781 0.913107 40.0782 0.970176 40.0782 1.12712C40.0782 1.28406 39.9686 1.34588 39.7255 1.34588Z" fill="#005087"/>
<path d="M39.7971 0.0665741C39.0487 0.0665741 38.4434 0.670559 38.4434 1.41246C38.4434 2.15436 39.0487 2.7631 39.7971 2.7631C40.5455 2.7631 41.1461 2.15912 41.1461 1.41246C41.1461 0.665803 40.5407 0.0665741 39.7971 0.0665741ZM39.7971 2.53958C39.1727 2.53958 38.6674 2.03547 38.6674 1.41246C38.6674 0.789453 39.1727 0.290096 39.7971 0.290096C40.4215 0.290096 40.922 0.794209 40.922 1.41246C40.922 2.03071 40.4168 2.53958 39.7971 2.53958Z" fill="#005087"/>
<path d="M44.3348 26.8131H45.8221C45.9889 28.7963 47.1949 29.6476 49.2493 29.6476C51.3038 29.6476 52.2905 28.8153 52.2905 27.4647C52.2905 26.347 51.6231 25.7288 49.7641 25.3483L48.091 24.9964C46.151 24.5969 44.7495 23.7979 44.7495 21.8956C44.7495 19.8934 46.2368 18.5285 48.9776 18.5285C51.7185 18.5285 53.239 19.8126 53.4249 22.1144H51.9377C51.8043 20.5973 50.7508 19.7983 48.9299 19.7983C47.2235 19.7983 46.2225 20.5165 46.2225 21.7672C46.2225 22.7184 46.8088 23.251 48.296 23.5697L50.3838 24.0215C52.5908 24.4875 53.792 25.5386 53.792 27.3886C53.792 29.2386 52.4859 30.9269 49.1969 30.9269C46.2225 30.9269 44.5303 29.5762 44.3301 26.8226L44.3348 26.8131Z" fill="#6D6E71"/>
<path d="M54.3975 26.4326C54.3975 23.5316 55.9848 21.8481 58.4778 21.8481C60.4655 21.8481 61.8192 22.8991 62.1243 24.8823H60.6704C60.4369 23.7123 59.7028 23.1321 58.4968 23.1321C56.757 23.1321 55.9371 24.3353 55.9371 26.3661C55.9371 28.3968 56.838 29.6 58.4778 29.6C59.7505 29.6 60.4512 28.8819 60.6847 27.6644H62.1243C61.824 29.6808 60.5703 30.8841 58.3967 30.8841C55.9895 30.8841 54.4022 29.3337 54.4022 26.4326H54.3975Z" fill="#6D6E71"/>
<path d="M70.3803 24.6968V30.67H68.8406V25.0011C68.8406 23.817 68.2877 23.1844 67.1199 23.1844C65.952 23.1844 64.6602 23.836 64.6602 25.8857V30.6748H63.1206V18.7996H64.6602V23.1511C65.2608 22.3189 66.2476 21.8481 67.4535 21.8481C69.2601 21.8481 70.3803 22.8801 70.3803 24.7015V24.6968Z" fill="#6D6E71"/>
<path d="M79.475 26.7323H73.0066C73.059 28.6679 74.06 29.619 75.6139 29.619C76.8866 29.619 77.6207 28.9865 78.0068 27.9022L79.413 28.0686C78.8791 29.8521 77.4586 30.8698 75.5663 30.8698C72.9923 30.8698 71.4717 28.9865 71.4717 26.3328C71.4717 23.679 72.9589 21.8623 75.5329 21.8623C77.9592 21.8623 79.4797 23.4793 79.4797 26.1663V26.7323H79.475ZM73.0256 25.6289H78.0402C77.84 23.9929 76.9534 23.1084 75.5472 23.1084C74.141 23.1084 73.1734 23.9406 73.0209 25.6289H73.0256Z" fill="#6D6E71"/>
<path d="M87.9356 18.7949V30.6701H86.5962V29.3004C86.0766 30.1992 85.0756 30.8508 83.822 30.8508C81.4815 30.8508 80.061 28.9009 80.061 26.2329C80.061 23.5649 81.6007 21.8814 83.7886 21.8814C84.9088 21.8814 85.843 22.3474 86.396 23.0988V18.7949H87.9356ZM86.4818 26.2662C86.4818 24.2307 85.4474 23.1987 84.0079 23.1987C82.5683 23.1987 81.6007 24.264 81.6007 26.2329C81.6007 28.2018 82.4873 29.5334 83.9745 29.5334C85.4617 29.5334 86.4818 28.2969 86.4818 26.2662Z" fill="#6D6E71"/>
<path d="M96.7826 22.0621V30.6701H95.3431V29.4526C94.7568 30.3704 93.7224 30.8888 92.4497 30.8888C90.6431 30.8888 89.5229 29.8568 89.5229 28.0353V22.0621H91.0626V27.731C91.0626 28.9152 91.6155 29.5477 92.7834 29.5477C93.9512 29.5477 95.243 28.8961 95.243 26.8464V22.0573H96.7826V22.0621Z" fill="#6D6E71"/>
<path d="M98.3701 18.7949H99.9098V30.6701H98.3701V18.7949Z" fill="#6D6E71"/>
<path d="M109 26.7323H102.531C102.584 28.6679 103.585 29.619 105.139 29.619C106.412 29.619 107.146 28.9865 107.532 27.9022L108.938 28.0686C108.404 29.8521 106.984 30.8698 105.091 30.8698C102.517 30.8698 100.997 28.9865 100.997 26.3328C100.997 23.679 102.484 21.8623 105.058 21.8623C107.484 21.8623 109.005 23.4793 109.005 26.1663V26.7323H109ZM102.551 25.6289H107.565C107.365 23.9929 106.478 23.1084 105.072 23.1084C103.666 23.1084 102.698 23.9406 102.546 25.6289H102.551Z" fill="#6D6E71"/>
</g>
<defs>
<clipPath id="clip0_40_327">
<rect width="109" height="37" fill="white"/>
</clipPath>
</defs>
</svg>
